<svg xmlns="http://www.w3.org/2000/svg" width="1584" height="1201.038" viewBox="0 0 1584 1201.038">
  <defs>
    <style>
      .cls-1 {
        fill: #9f616a;
      }

      .cls-2 {
        fill: #6c63ff;
      }

      .cls-3 {
        fill: #e6e6e6;
      }

      .cls-4 {
        fill: #ccc;
      }

      .cls-5 {
        fill: #2f2e41;
      }

      .cls-6 {
        fill: #3f3d56;
      }

      .cls-7 {
        fill: #fff;
      }
    </style>
  </defs>
  <g id="svg" transform="translate(0)">
    <path id="Path_115" data-name="Path 115" class="cls-1" d="M710.071,499.694a21.205,21.205,0,0,1,31.731,7.1l74.588-10.733-16.682,35.428-68.273,4.761a21.32,21.32,0,0,1-21.364-36.559Z" transform="translate(272.299 186.341)"/>
    <circle id="Ellipse_457" data-name="Ellipse 457" class="cls-2" cx="19.588" cy="19.588" r="19.588" transform="translate(0 0)"/>
    <path id="Path_40" data-name="Path 40" class="cls-2" d="M218.134,119.855a10.143,10.143,0,0,0,0,20.286H696.3a10.144,10.144,0,1,0,.333-20.285H696.3Z" transform="translate(-117.821 -110.408)"/>
    <circle id="Ellipse_458" data-name="Ellipse 458" class="cls-2" cx="19.588" cy="19.588" r="19.588" transform="translate(0 95.142)"/>
    <path id="Path_40-2" data-name="Path 40-2" class="cls-2" d="M218.134,173a10.143,10.143,0,0,0,0,20.286H696.3A10.144,10.144,0,0,0,696.816,173l-.185,0H696.3Z" transform="translate(-117.821 -68.408)"/>
    <circle id="Ellipse_459" data-name="Ellipse 459" class="cls-3" cx="19.588" cy="19.588" r="19.588" transform="translate(0 190.283)"/>
    <path id="Path_40-3" data-name="Path 40-3" class="cls-3" d="M218.134,226.138a10.143,10.143,0,0,0,0,20.286H696.3a10.144,10.144,0,0,0,.518-20.282l-.185,0H696.3Z" transform="translate(-117.821 -26.409)"/>
    <circle id="Ellipse_460" data-name="Ellipse 460" class="cls-2" cx="19.588" cy="19.588" r="19.588" transform="translate(0 285.423)"/>
    <path id="Path_40-4" data-name="Path 40-4" class="cls-2" d="M218.134,279.282a10.143,10.143,0,0,0,0,20.286H696.3a10.144,10.144,0,1,0,.333-20.285H696.3Z" transform="translate(-117.821 15.593)"/>
    <circle id="Ellipse_461" data-name="Ellipse 461" class="cls-3" cx="19.588" cy="19.588" r="19.588" transform="translate(0 380.565)"/>
    <path id="Path_40-5" data-name="Path 40-5" class="cls-3" d="M218.134,332.421a10.143,10.143,0,1,0,0,20.286H696.3a10.144,10.144,0,0,0,.521-20.281l-.188,0H696.3Z" transform="translate(-117.821 57.591)"/>
    <circle id="Ellipse_462" data-name="Ellipse 462" class="cls-2" cx="19.588" cy="19.588" r="19.588" transform="translate(0 475.706)"/>
    <path id="Path_40-6" data-name="Path 40-6" class="cls-2" d="M218.134,385.562a10.143,10.143,0,0,0,0,20.286H696.3a10.144,10.144,0,1,0,.521-20.281l-.188,0H696.3Z" transform="translate(-117.821 99.591)"/>
    <circle id="Ellipse_463" data-name="Ellipse 463" class="cls-3" cx="19.588" cy="19.588" r="19.588" transform="translate(0 570.848)"/>
    <path id="Path_40-7" data-name="Path 40-7" class="cls-3" d="M218.134,438.7a10.143,10.143,0,1,0,0,20.286H696.3a10.144,10.144,0,1,0,.333-20.285H696.3Z" transform="translate(-117.821 141.591)"/>
    <path id="Path_2291" data-name="Path 2291" class="cls-3" d="M1136.043,765.329c-2.256,8.522-50.165,184.226-190.94,254.944q-8.808,4.431-18.136,8.289l-1.468-2.238-1.719-2.614,2.363.519a10.753,10.753,0,0,0,12.121-6.087c49.163-23.382,85.811-111.323,85.811-215.915a401.607,401.607,0,0,0-14.108-107.8l1.558-7.09,4.727-21.412c5.46-12.891,10.742-25.566,15.719-37.937,27.052-67.281,45.475-125.091,42.163-151.534,1.683,10.312,34.768,220.713-49.986,408.932C1077.266,838.538,1128.935,788.462,1136.043,765.329Z" transform="translate(447.896 171.429)"/>
    <path id="Path_2292" data-name="Path 2292" class="cls-4" d="M821.285,533.422c-41.876,0-78.6,43.738-98.845,109.05-1.432,4.583-2.775,9.292-4.028,14.072A407.557,407.557,0,0,0,705.808,759c0,124.393,51.794,225.583,115.477,225.583S936.762,883.4,936.762,759,884.967,533.422,821.285,533.422Zm0,447.585c-61.7,0-111.9-99.6-111.9-222a405.267,405.267,0,0,1,12.765-102.873q1.772-6.741,3.8-13.213C745.661,579.416,781.02,537,821.285,537c61.7,0,111.9,99.6,111.9,222S882.98,981.007,821.285,981.007Z" transform="translate(275.621 216.45)"/>
    <path id="Path_2293" data-name="Path 2293" class="cls-4" d="M803.193,847.425c-22.087,0-39.387-57.291-39.387-130.428s17.3-130.428,39.387-130.428S842.581,643.86,842.581,717,825.281,847.425,803.193,847.425Zm0-257.272c-19.409,0-35.807,58.088-35.807,126.847s16.4,126.847,35.807,126.847S839,785.76,839,717s-16.4-126.849-35.807-126.849Z" transform="translate(321.462 258.455)"/>
    <path id="Path_116" data-name="Path 116" class="cls-1" d="M610.157,706.8l-32.991,0-15.7-127.252,48.692,0Z" transform="translate(443.753 458.041)"/>
    <path id="Path_117" data-name="Path 117" class="cls-5" d="M797.95,801.942l-106.378,0v-1.345a41.407,41.407,0,0,1,41.4-41.4h.006l64.972,0Z" transform="translate(264.373 394.882)"/>
    <path id="Path_118" data-name="Path 118" class="cls-1" d="M550.492,693.468l-32.991,0-5.127-97.045,38.122,0Z" transform="translate(404.95 471.376)"/>
    <path id="Path_119" data-name="Path 119" class="cls-5" d="M742.95,801.942l-106.378,0v-1.345a41.406,41.406,0,0,1,41.4-41.4h.006l64.972,0Z" transform="translate(220.905 394.882)"/>
    <ellipse id="Ellipse_464" data-name="Ellipse 464" class="cls-4" cx="15.218" cy="29.956" rx="15.218" ry="29.956" transform="translate(1113.914 945.497)"/>
    <path id="Path_2294" data-name="Path 2294" class="cls-6" d="M784.34,410.816l219.256-.9v96.63l-219.256,9.9Z" transform="translate(337.691 118.843)"/>
    <path id="Path_2295" data-name="Path 2295" class="cls-4" d="M654.385,680.46l-3.581-.2,10.835-196.841H883.552V487H665.035Z" transform="translate(232.152 176.935)"/>
    <path id="Path_2298" data-name="Path 2298" class="cls-6" d="M1036.548,600.03q-2.014,6.472-3.8,13.213l-3.742.412L912.567,626.6,645.806,599.744l277.5-14.323,109.73,14.161Z" transform="translate(228.202 257.547)"/>
    <path id="Path_2301" data-name="Path 2301" class="cls-5" d="M820.314,556.954l-6.531,18.921S706.518,543.087,688.332,610.5,669,907.3,669,907.3l44.759-1.79L758.29,675.3l214.064-33.685-6.829-120.092Z" transform="translate(246.534 207.049)"/>
    <path id="Path_2302" data-name="Path 2302" class="cls-5" d="M873.058,566.423s-146.808-30.436-157.55,42.968,13.775,304.5,13.775,304.5l42.968-1.79S821.138,709.65,803.234,659.52l121.134-7.493c41.815-2.587,75.975-35.617,78.379-77.443.92-16.011-3.087-30.541-16.9-38.6-42.968-25.065-121.743-25.065-121.743-25.065Z" transform="translate(281.139 198.668)"/>
    <path id="Path_2305" data-name="Path 2305" class="cls-6" d="M909.387,538.748h-3.581V402.09L963.6,418.867l-1,3.434-53.211-15.449Z" transform="translate(433.691 112.653)"/>
    <path id="Path_2306" data-name="Path 2306" class="cls-4" d="M1067.629,643.115c-20.141-66.225-57.13-110.7-99.346-110.7-41.876,0-78.6,43.738-98.845,109.05-1.432,4.583-2.775,9.292-4.028,14.072A407.67,407.67,0,0,0,852.806,758c0,124.393,51.794,225.583,115.477,225.583a60.473,60.473,0,0,0,13.3-1.483c42.967-9.669,78.81-65.548,94.153-141.458A419.145,419.145,0,0,0,1083.76,758C1083.752,716.071,1077.869,676.775,1067.629,643.115Zm-73.261,330.8A60.468,60.468,0,0,1,968.283,980c-61.7,0-111.9-99.6-111.9-222a406.035,406.035,0,0,1,12.765-102.873q1.772-6.741,3.8-13.213C892.659,578.412,928.018,536,968.283,536c41.984,0,78.65,46.137,97.788,114.206A401.613,401.613,0,0,1,1080.179,758C1080.172,862.594,1043.531,950.536,994.368,973.916Z" transform="translate(391.799 215.657)"/>
    <path id="Path_2307" data-name="Path 2307" class="cls-4" d="M950.194,846.425c-22.087,0-39.388-57.291-39.388-130.428s17.3-130.428,39.388-130.428S989.581,642.86,989.581,716,972.281,846.425,950.194,846.425Zm0-257.272c-19.409,0-35.807,58.088-35.807,126.847s16.4,126.847,35.807,126.847S986,784.76,986,716s-16.4-126.849-35.807-126.849Z" transform="translate(437.643 257.664)"/>
    <ellipse id="Ellipse_465" data-name="Ellipse 465" class="cls-4" cx="15.218" cy="29.956" rx="15.218" ry="29.956" transform="translate(1377.094 943.706)"/>
    <path id="Path_2308" data-name="Path 2308" class="cls-6" d="M921.806,400.421l37.6,14.323-7.161,19.694-30.436-12.532Z" transform="translate(446.336 111.334)"/>
    <path id="Path_2309" data-name="Path 2309" class="cls-4" d="M685.806,478.421v28.645h106.67V480.315Z" transform="translate(259.816 172.981)"/>
    <path id="Path_2311" data-name="Path 2311" class="cls-3" d="M903.908,411.433a122,122,0,0,1-2.4,23.525L890.785,587.442,782.988,618.5l-31.8,9.167-1.45-8.45-5.425-31.456-1.683-9.74,37.9-6.821,61.445-11.064,14.484-177.19s43.39.444,44.6,5.156a93.046,93.046,0,0,1,2.847,23.328Z" transform="translate(304.729 97.525)"/>
    <path id="Path_2312" data-name="Path 2312" class="cls-5" d="M956.587,316.024a78.619,78.619,0,0,0-6.212-10.115,76.89,76.89,0,0,0-51.06-31.259,79.571,79.571,0,0,0-15.63-.823c-35.807,1.719-66.458,28.09-73.118,65.383-.072.466-.143.9-.215,1.343l-.107.7-11.691,76.734,8.218,1.253,32.1,4.888,67.084,10.223,46.889,7.143,11.691-76.734a79.425,79.425,0,0,0-7.949-48.733Z" transform="translate(348.925 11.215)"/>
    <circle id="Ellipse_466" data-name="Ellipse 466" class="cls-1" cx="58.888" cy="58.888" r="58.888" transform="translate(1163.336 306.565)"/>
    <path id="Path_2314" data-name="Path 2314" class="cls-3" d="M970.6,381.819l-2.309,123.748c-.537.591-1.074,1.182-1.575,1.79-24.492,28.27-29.254,68.588-28.27,107.492.089,4.3.269,8.576.5,12.819-17.957,7.913-36.774,16.185-55.465,22.666-3.67,1.271-7.323,2.489-10.957,3.6-30.149,9.274-59.4,12.855-83.484,1.79a69.681,69.681,0,0,1-23.024-17.169l-.841-16.239,21.781-41.866-3.581-51.92c-22.136-55.945,1.181-53.951,18.949-126.427A31.531,31.531,0,0,1,824.6,385.738l14.054-2.56,96.929-5.051,30.382,1.7Z" transform="translate(322.544 93.714)"/>
    <path id="Path_2315" data-name="Path 2315" class="cls-5" d="M947.972,316.11l-21.76,44.415-126.43-21.566A79.267,79.267,0,0,1,947.974,316.11Z" transform="translate(349.896 11.185)"/>
    <path id="Path_2316" data-name="Path 2316" class="cls-4" d="M758.734,471.358a5.681,5.681,0,0,0-7.109-.7l-43.432,28.287a5.713,5.713,0,0,0-.913,8.835L817.733,617.755a5.713,5.713,0,0,0,8.079-.016l.061-.062,36.2-37.463a5.729,5.729,0,0,0-.116-8.056Z" transform="translate(275.458 166.106)"/>
    <path id="Path_2317" data-name="Path 2317" class="cls-7" d="M712.143,499.464l4.5-2.865a4.283,4.283,0,0,0,6.164,5.624l29.086-20a4.281,4.281,0,0,0-1.132-7.609l2.315-1.477a1.558,1.558,0,0,1,1.946.218l97.849,96.159a1.557,1.557,0,0,1-.012,2.2l-.027.026-35.536,34.625a1.558,1.558,0,0,1-2.168-.031L711.882,501.874a1.557,1.557,0,0,1,.261-2.417Z" transform="translate(280.062 168.614)"/>
    <path id="Path_2318" data-name="Path 2318" class="cls-2" d="M819.673,544.062l-30.017,28.3-71.4-70.539,36.235-23.586Z" transform="translate(285.465 172.836)"/>
    <path id="Path_2319" data-name="Path 2319" class="cls-3" d="M723.348,504.671a1.04,1.04,0,0,0,0-1.47l-6.243-6.243a1.064,1.064,0,0,0-1.47,0,1.04,1.04,0,0,0,0,1.47l6.243,6.243a1.063,1.063,0,0,0,1.47,0Z" transform="translate(283.151 187.398)"/>
    <path id="Path_2320" data-name="Path 2320" class="cls-3" d="M729.223,509.08l-6.243-6.243a1.039,1.039,0,0,0-1.47,1.47h0l6.243,6.243a1.039,1.039,0,0,0,1.47-1.47Z" transform="translate(287.794 192.038)"/>
    <circle id="Ellipse_467" data-name="Ellipse 467" class="cls-2" cx="7.013" cy="7.013" r="7.013" transform="translate(1097.434 734.177)"/>
    <rect id="Rectangle_254" data-name="Rectangle 254" class="cls-6" width="1085.118" height="3.581" transform="translate(498.882 1196.898)"/>
    <path id="Path_120" data-name="Path 120" class="cls-1" d="M788.655,543.346a21.205,21.205,0,0,1,32.515.251l70.647-26.222-8.835,38.149-65.733,19.052a21.32,21.32,0,0,1-28.594-31.231Z" transform="translate(337.016 203.767)"/>
    <path id="Path_2322" data-name="Path 2322" class="cls-3" d="M868.08,713.693l-45.487-86.951,99.355-17.869-1.313-226.165v-3.581c43.879,15.081,69.829,59.04,60.835,104.558L970.738,636.17Z" transform="translate(367.924 94.505)"/>
    <path id="Path_2324" data-name="Path 2324" class="cls-4" d="M838.806,486.421v28.645h106.67V488.315Z" transform="translate(380.738 179.304)"/>
    <path id="Path_2323" data-name="Path 2323" class="cls-4" d="M988.051,568.467,986.318,495H819.711l-5.324,196.988-3.581-.1,5.419-200.47H989.781l.057,1.729,1.79,75.194Z" transform="translate(358.608 183.255)"/>
  </g>
</svg>
