<svg id="svg" xmlns="http://www.w3.org/2000/svg" width="1553.891" height="1355.114" viewBox="0 0 1553.891 1355.114">
  <defs>
    <style>
      .cls-1 {
        fill: #fff;
      }

      .cls-2 {
        fill: #3f3d56;
      }

      .cls-3 {
        fill: #6c63ff;
      }

      .cls-4 {
        fill: #9f616a;
      }

      .cls-5 {
        fill: #2f2e41;
      }

      .cls-6 {
        fill: #ffb7b7;
      }

      .cls-7 {
        fill: #cbcbcb;
      }

      .cls-8 {
        fill: #e4e4e4;
      }

      .cls-9 {
        fill: #f0f0f0;
      }
    </style>
  </defs>
  <path id="Path_20" data-name="Path 20" class="cls-1" d="M371.218,352.963a71.058,71.058,0,0,1-10.943.255,2.387,2.387,0,0,0-2.627,2.071l-6.98,52.356a21.254,21.254,0,0,1-4.5,10.372,22.605,22.605,0,0,0-5.088,17.277v88.936s-.45,11.858,8.661,11.858a131.714,131.714,0,0,0,32.843,0s7.295-1.381,7.295-12.324V436.2a21.42,21.42,0,0,0-4.5-17.412A21.793,21.793,0,0,1,381,408.471l-7.25-53.452a2.387,2.387,0,0,0-2.537-2.056Z" transform="translate(-113.485 118.777)"/>
  <path id="Path_21" data-name="Path 21" class="cls-2" d="M366.919,539.408a132.969,132.969,0,0,1-16.493-1.026,8.866,8.866,0,0,1-6.566-2.69c-3.708-3.851-3.5-10.446-3.491-10.726V436.179a24.187,24.187,0,0,1,5.438-18.33,19.742,19.742,0,0,0,4.169-9.62l6.979-52.345a3.909,3.909,0,0,1,4.278-3.365,69.27,69.27,0,0,0,10.629-.256l.042,0a3.887,3.887,0,0,1,4.132,3.35l7.25,53.454a20.314,20.314,0,0,0,4.066,9.592,22.862,22.862,0,0,1,4.819,18.467v87.437c0,12.046-8.432,13.783-8.517,13.8a133.91,133.91,0,0,1-16.732,1.05Zm-6.056-183.9a.9.9,0,0,0-.934.768l-6.981,52.365a22.769,22.769,0,0,1-4.823,11.116,21.191,21.191,0,0,0-4.767,16.149l.011.185v88.936c0,.111-.162,5.672,2.659,8.594a5.92,5.92,0,0,0,4.5,1.764l.187.012a130.358,130.358,0,0,0,32.468,0c.143-.035,5.982-1.367,5.982-10.835l.024-87.839A19.886,19.886,0,0,0,385,420.527a23.357,23.357,0,0,1-4.692-11.052l-7.252-53.461a.891.891,0,0,0-.925-.761,72.874,72.874,0,0,1-11.147.258,1.153,1.153,0,0,0-.123-.005Z" transform="translate(-114.276 117.983)"/>
  <path id="Path_22" data-name="Path 22" class="cls-3" d="M125.09,261.989h11.063a16.586,16.586,0,0,1,16.586,16.586V320.2a16.586,16.586,0,0,1-16.586,16.586H125.09A16.586,16.586,0,0,1,108.5,320.2V278.575a16.586,16.586,0,0,1,16.586-16.586Z" transform="translate(121.626 293.674)"/>
  <path id="Path_23" data-name="Path 23" class="cls-4" d="M20.435,695.961H56.5L73.66,556.846l-53.231,0Z" transform="translate(22.899 624.191)"/>
  <path id="Path_24" data-name="Path 24" class="cls-5" d="M249.773,747.427l71.028,0h0a45.267,45.267,0,0,1,45.264,45.261v1.474l-116.294,0Z" transform="translate(-215.638 560.951)"/>
  <path id="Path_25" data-name="Path 25" class="cls-5" d="M245.892,518.7s-15.631,17.669,10.252,86.545l-4.559,377.661,83.877-1.636L353.9,797.052l33.568-268.829Z" transform="translate(-225.232 304.567)"/>
  <path id="Path_26" data-name="Path 26" class="cls-2" d="M424.683,782.5l-.918-.14c-107.3-16.365-188.274-32.054-189.08-32.21l-1.006-.2,28.128-68.415c-.222-7.149-6.311-207.9,5.345-265.58,11.284-55.836,64.471-64.986,70.532-65.847l6.086-20.165,76.887,40.009,13.41,46.152,2.724,126.49Z" transform="translate(-233.679 92.984)"/>
  <path id="Path_27" data-name="Path 27" class="cls-4" d="M448.632,420.57a25.1,25.1,0,0,0-18.437,8.066l-129.232,0-47.338,10.076,7.772,59.946,168.395-36.215a25.177,25.177,0,1,0,18.839-41.869Z" transform="translate(-211.32 194.567)"/>
  <circle id="Ellipse_14" data-name="Ellipse 14" class="cls-4" cx="62.284" cy="62.284" r="62.284" transform="translate(99.253 395.174) rotate(-61.337)"/>
  <path id="Path_28" data-name="Path 28" class="cls-5" d="M300.908,299.982l-3.019-6.077,15.193-7.549s16.761-27.271,47.09-19.608S404.147,279,404.147,279l15.155,7.625-7.606,7.568,13.645,4.587-9.116,4.529,10.607,6.1-5.71,31.253s-9.484-23.7-27.716-14.646-51.581-4.683-51.581-4.683L312.852,377.4s-5.977-19.656-16.634-14.415C296.219,362.987,268.992,319.628,300.908,299.982Z" transform="translate(-175.706 20.62)"/>
  <path id="Path_29" data-name="Path 29" class="cls-2" d="M267.38,596.158,252.6,552.2l-3.575-146.543,6.3-20.792a58.09,58.09,0,1,1,109.711,37.957l-33.752,86.49,1.716,3.33,73.123-.592L432.1,558.8Z" transform="translate(-216.475 108.301)"/>
  <path id="Path_30" data-name="Path 30" class="cls-6" d="M621.331,510.041a22.506,22.506,0,0,0,3.6-34.322l36.044-71.4-41.284,4.789-27.9,67.065a22.628,22.628,0,0,0,29.543,33.865Z" transform="translate(161.186 176.355)"/>
  <path id="Path_31" data-name="Path 31" class="cls-6" d="M530.576,628.3l-32.484,0L482.638,503l47.942,0Z" transform="translate(541.008 563.832)"/>
  <path id="Path_32" data-name="Path 32" class="cls-5" d="M798.18,729.708l-104.74,0v-1.325A40.769,40.769,0,0,1,734.2,687.613h.007l63.972,0Z" transform="translate(281.686 493.906)"/>
  <path id="Path_33" data-name="Path 33" class="cls-6" d="M446.876,628.3l-32.484,0L398.938,503l47.944,0Z" transform="translate(447.185 563.832)"/>
  <path id="Path_34" data-name="Path 34" class="cls-5" d="M710.733,729.708l-104.74,0V728.38a40.77,40.77,0,0,1,40.765-40.767h.005l63.972,0Z" transform="translate(183.663 493.906)"/>
  <path id="Path_35" data-name="Path 35" class="cls-5" d="M450.951,312.572l-31.795,73.249L392.928,806.84l66.239-2.649,18.092-200.7,55.808-178.757,32.084,199.286L578.4,798.891l54.809,2.373,21.841-488.692Z" transform="translate(440.449 350.374)"/>
  <path id="Path_36" data-name="Path 36" class="cls-3" d="M825.6,272.694,733.447,275l-54.1,27.774-2.969,204.912L642.632,649.161s210.83,14.51,239.976-6.687L848.163,480.849l46.2-174.67Z" transform="translate(224.733 28.807)"/>
  <path id="Path_37" data-name="Path 37" class="cls-3" d="M750.983,291.54l-8.578-5.794S706.864,296.4,696.36,343.789c0,0-8.038,23.776-11.565,40.123-4.045,18.75-93.377,190.972-93.377,190.972L644.9,590.228l98.055-158.574Z" transform="translate(167.325 43.438)"/>
  <path id="Path_38" data-name="Path 38" class="cls-6" d="M765.368,526.04a22.506,22.506,0,0,1,6.008-33.983L756.419,413.49l38.363,15.987,8.323,72.158a22.628,22.628,0,0,1-37.736,24.405Z" transform="translate(352.281 186.631)"/>
  <path id="Path_39" data-name="Path 39" class="cls-3" d="M768.228,291.329l9.843-3.2s31.225,20.04,28.254,68.489c0,0,1.17,25.071.053,41.757-1.282,19.138,15.9,209.317,15.9,209.317H766.633L742.787,435.464Z" transform="translate(337.001 46.105)"/>
  <path id="Path_40" data-name="Path 40" class="cls-6" d="M807.089,265.922a63.882,63.882,0,1,1-63.882-63.881h0A63.723,63.723,0,0,1,807.089,265.6Z" transform="translate(265.865 -50.391)"/>
  <path id="Path_41" data-name="Path 41" class="cls-5" d="M680.875,200.857c7.483-16.092,21.965-12.91,34.63-7.456,16.039-3.558,31.293-14.209,48.573-7.91,17.022,24.758,74.174,17.474,62.015,57.78-.016,9.658,18.174,4.036,15,19.854,9.636,30.441-34.781,88.093-60.279,75.953,6.306-11.557,20.712-37.808-1.138-40.412-47,43.733-4.849-83.277-63.905-46.341C696.216,270.222,669.447,218.757,680.875,200.857Z" transform="translate(264.528 -71.13)"/>
  <path id="Path_42" data-name="Path 42" class="cls-4" d="M775.041,575.322a21.229,21.229,0,0,0,25.408-20.349L960.85,404l-36.091-28.79L778.167,533.045a21.344,21.344,0,0,0-3.126,42.276Z" transform="translate(353.792 143.72)"/>
  <path id="Path_43" data-name="Path 43" class="cls-7" d="M860.5,443.906l-31.207-36.571a9.519,9.519,0,0,1,2.19-14.247l40.626-25.432a26.435,26.435,0,1,1,34.2,40.32l-31.4,36.009a9.519,9.519,0,0,1-14.413-.079Z" transform="translate(431.415 128.218)"/>
  <path id="Path_44" data-name="Path 44" class="cls-4" d="M600.146,700.945l-39.218,0L542.27,549.675l57.882,0Z" transform="translate(607.852 616.153)"/>
  <path id="Path_45" data-name="Path 45" class="cls-5" d="M874.785,796.322l-126.455,0v-1.6a49.222,49.222,0,0,1,49.216-49.22h.006l77.234,0Z" transform="translate(343.214 558.792)"/>
  <path id="Path_46" data-name="Path 46" class="cls-4" d="M747.952,700.945l-39.216,0L690.078,549.675l57.883,0Z" transform="translate(773.536 616.153)"/>
  <path id="Path_47" data-name="Path 47" class="cls-5" d="M1022.593,796.322l-126.455,0v-1.6a49.222,49.222,0,0,1,49.216-49.22h.006l77.234,0Z" transform="translate(508.898 558.792)"/>
  <path id="Path_48" data-name="Path 48" class="cls-5" d="M1075.265,530.523,1114.8,384.468l-51.284-28.827H991.927l-27.842,29.787s-46.517,32.364-35.258,68.223l18.163,81.675L919.211,665.046l-139.962,194.1L746.118,1049.8l130.42,34.191,141.031-277.7,68.379,307.482,127.208-6.4-43.834-372.822s-12.5-113.575-77.994-184.49Z" transform="translate(340.735 121.786)"/>
  <path id="Path_49" data-name="Path 49" class="cls-4" d="M980.715,625.533a21.229,21.229,0,0,0-2.72-32.439L947.323,386.166l-44.024,13.9,44.069,199.294a21.344,21.344,0,0,0,33.347,26.172Z" transform="translate(516.924 156.003)"/>
  <path id="Path_50" data-name="Path 50" class="cls-7" d="M958.478,444.579l-47.759,5.506a9.519,9.519,0,0,1-10.6-9.763l1.547-47.9a26.435,26.435,0,1,1,52.54-5.9l12.38,46.143a9.519,9.519,0,0,1-8.1,11.92Z" transform="translate(513.35 130.067)"/>
  <path id="Path_51" data-name="Path 51" class="cls-5" d="M841.146,412.163V350.626a82.462,82.462,0,1,1,164.924,0v61.539a11.09,11.09,0,0,1-11.077,11.077H852.224a11.09,11.09,0,0,1-11.078-11.079Z" transform="translate(447.256 23.729)"/>
  <circle id="Ellipse_15" data-name="Ellipse 15" class="cls-4" cx="60.458" cy="60.458" r="60.458" transform="translate(1271.863 361.027) rotate(-28.663)"/>
  <path id="Path_52" data-name="Path 52" class="cls-5" d="M831.948,343.841a65.3,65.3,0,0,1,65.232-65.232h12.308a65.3,65.3,0,0,1,65.23,65.231v1.231h-26.01l-8.872-24.842-1.774,24.842H924.621l-4.476-12.534-.9,12.534h-87.3Z" transform="translate(436.945 35.438)"/>
  <path id="Path_53" data-name="Path 53" class="cls-5" d="M870.359,404.02a10.913,10.913,0,0,1-.867-11.587c13.043-24.808,31.3-70.647,7.065-98.916l-1.742-2.031h70.369v105.65l-63.925,11.279a11.307,11.307,0,0,1-1.96.173,11.032,11.032,0,0,1-8.939-4.567Z" transform="translate(477.609 49.871)"/>
  <path id="Path_54" data-name="Path 54" class="cls-6" d="M654.128,383.911a24.323,24.323,0,0,0-2.448,2.95l-114.657-2.805-13.376-24.442-39.526,15.365L503.6,420.549a18.5,18.5,0,0,0,19.232,11.1L652.369,416a24.276,24.276,0,1,0,1.759-32.088Z" transform="translate(47.053 126.238)"/>
  <path id="Path_55" data-name="Path 55" class="cls-6" d="M154.377,645.689h37.7l17.935-145.414-55.641,0Z" transform="translate(173.04 560.778)"/>
  <path id="Path_56" data-name="Path 56" class="cls-5" d="M383.519,693.575l74.245,0h0a47.316,47.316,0,0,1,47.314,47.31v1.541l-121.56,0Z" transform="translate(-65.717 500.586)"/>
  <path id="Path_57" data-name="Path 57" class="cls-6" d="M345.971,650.668l34.669-14.81L340.009,495.086l-51.166,21.861Z" transform="translate(323.775 554.962)"/>
  <path id="Path_58" data-name="Path 58" class="cls-5" d="M543.007,712.857l68.275-29.168h0a47.317,47.317,0,0,1,62.1,24.923l.6,1.414L562.2,757.781Z" transform="translate(113.06 485.231)"/>
  <path id="Path_59" data-name="Path 59" class="cls-6" d="M325.516,258.263l2.726,44.177-79.686,8.528-83.383,8.923,24.541-67.081Z" transform="translate(185.149 283.385)"/>
  <path id="Path_60" data-name="Path 60" class="cls-8" d="M562.906,512.9c-.9-.355-90.91-35.366-146.2-6.738l-1.359.7-11.029-54.287-6.285-116.715,40.894-19.323,11.259-25.221,76.692-4.538,15.76,21.613L596.3,325.981,564.232,513.423Z" transform="translate(-49.443 44.599)"/>
  <path id="Path_61" data-name="Path 61" class="cls-8" d="M477.1,386.59l9.486-74.535,21.6-6.574.364.134c.5.183,12.237,4.676,15.45,20.928,3.084,15.6,26.314,112.671,26.548,113.65l.233.971L496.2,463Z" transform="translate(39.182 65.559)"/>
  <path id="Path_62" data-name="Path 62" class="cls-5" d="M709.171,1010.192l72.652-14.9L665.7,674.874,625.963,565.586s-25.208-87.629-36.595-121.538l-6.873-45.5L419.8,416.555s-45.439,66.732-31.635,175.5l-6.244,408.821,72.652,3.726,60.854-412.317,106.8,226.029s33.664,96.455,57.749,117.361Z" transform="translate(-67.504 169.881)"/>
  <path id="Path_63" data-name="Path 63" class="cls-6" d="M499.685,483.288a24.339,24.339,0,0,0-3.827.211l-75.9-85.985,8.829-26.427-38.141-18.537L370.47,397.815a18.5,18.5,0,0,0,4.938,21.648l99.551,84.352a24.276,24.276,0,1,0,24.726-20.526Z" transform="translate(-82.141 118.321)"/>
  <path id="Path_64" data-name="Path 64" class="cls-8" d="M375.9,413.09l29.672-84.517c3.335-9.963,7.513-16.016,12.42-17.991a7.663,7.663,0,0,1,6.158-.058l13.305,16.809L449.8,379.209l-31.661,74.474Z" transform="translate(-74.263 70.521)"/>
  <path id="Path_65" data-name="Path 65" class="cls-5" d="M542.681,353.314H412.421a10.118,10.118,0,0,1-10.106-10.106V287.062a75.236,75.236,0,0,1,150.472,0v56.146A10.118,10.118,0,0,1,542.681,353.314Z" transform="translate(-44.648 -39.422)"/>
  <circle id="Ellipse_16" data-name="Ellipse 16" class="cls-6" cx="55.161" cy="55.161" r="55.161" transform="translate(393.204 202.264)"/>
  <path id="Path_66" data-name="Path 66" class="cls-5" d="M550.5,281.994h-79.65l-.817-11.435-4.084,11.435H453.682l-1.619-22.665-8.095,22.665H420.237v-1.123a59.582,59.582,0,0,1,59.515-59.515h11.23A59.582,59.582,0,0,1,550.5,280.871Z" transform="translate(-24.558 -28.74)"/>
  <path id="Path_67" data-name="Path 67" class="cls-5" d="M475.561,339.944a10.328,10.328,0,0,1-1.789-.158L415.449,329.5V233.1h64.2l-1.59,1.853c-22.115,25.792-5.454,67.615,6.446,90.249a9.957,9.957,0,0,1-.791,10.571A10.066,10.066,0,0,1,475.561,339.944Z" transform="translate(-29.926 -15.571)"/>
  <path id="Path_68" data-name="Path 68" class="cls-1" d="M789.218,392.723a71.083,71.083,0,0,1-10.943.255,2.386,2.386,0,0,0-2.627,2.071l-6.98,52.356a21.256,21.256,0,0,1-4.5,10.372,22.606,22.606,0,0,0-5.089,17.277v88.936s-.45,11.858,8.661,11.858a131.711,131.711,0,0,0,32.843,0s7.295-1.381,7.295-12.324v-87.57a21.421,21.421,0,0,0-4.5-17.412A21.8,21.8,0,0,1,799,448.232l-7.25-53.452A2.387,2.387,0,0,0,789.218,392.723Z" transform="translate(355.068 163.346)"/>
  <path id="Path_69" data-name="Path 69" class="cls-2" d="M784.919,579.169a132.889,132.889,0,0,1-16.493-1.026,8.866,8.866,0,0,1-6.567-2.69c-3.708-3.851-3.5-10.446-3.491-10.726V475.94a24.187,24.187,0,0,1,5.437-18.33,19.741,19.741,0,0,0,4.168-9.62l6.979-52.345a3.909,3.909,0,0,1,4.278-3.365,69.268,69.268,0,0,0,10.629-.256l.042,0a3.887,3.887,0,0,1,4.132,3.35l7.25,53.454a20.316,20.316,0,0,0,4.066,9.592,22.863,22.863,0,0,1,4.819,18.467v87.436c0,12.046-8.431,13.783-8.517,13.8A133.891,133.891,0,0,1,784.919,579.169Zm-6.056-183.9a.9.9,0,0,0-.934.768L770.948,448.4a22.77,22.77,0,0,1-4.823,11.116,21.192,21.192,0,0,0-4.767,16.149l.011.185v88.936c0,.111-.162,5.672,2.659,8.594a5.919,5.919,0,0,0,4.5,1.764l.187.012a130.359,130.359,0,0,0,32.468,0c.143-.035,5.981-1.367,5.981-10.835l.024-87.839A19.887,19.887,0,0,0,803,460.288a23.356,23.356,0,0,1-4.692-11.052l-7.252-53.461a.891.891,0,0,0-.925-.761,72.88,72.88,0,0,1-11.147.258,1.192,1.192,0,0,0-.123-.007Z" transform="translate(354.277 162.553)"/>
  <path id="Path_70" data-name="Path 70" class="cls-3" d="M543.09,301.749h11.063a16.586,16.586,0,0,1,16.586,16.586v41.624a16.586,16.586,0,0,1-16.586,16.586H543.09A16.586,16.586,0,0,1,526.5,359.959V318.337a16.587,16.587,0,0,1,16.588-16.588Z" transform="translate(590.179 338.243)"/>
  <path id="Path_71" data-name="Path 71" class="cls-1" d="M612.218,358.723a71.061,71.061,0,0,1-10.942.255,2.386,2.386,0,0,0-2.627,2.071l-6.98,52.356a21.254,21.254,0,0,1-4.5,10.372,22.6,22.6,0,0,0-5.088,17.277v88.936s-.45,11.858,8.661,11.858a131.715,131.715,0,0,0,32.843,0s7.295-1.381,7.295-12.323v-87.57a21.419,21.419,0,0,0-4.5-17.412A21.793,21.793,0,0,1,622,414.231l-7.25-53.452A2.386,2.386,0,0,0,612.218,358.723Z" transform="translate(156.662 125.234)"/>
  <path id="Path_72" data-name="Path 72" class="cls-2" d="M607.919,545.169a132.961,132.961,0,0,1-16.493-1.026,8.866,8.866,0,0,1-6.566-2.69c-3.708-3.851-3.5-10.446-3.491-10.726V441.94a24.188,24.188,0,0,1,5.438-18.33,19.743,19.743,0,0,0,4.169-9.62l6.978-52.345a3.909,3.909,0,0,1,4.278-3.365,69.263,69.263,0,0,0,10.629-.256l.042,0a3.887,3.887,0,0,1,4.132,3.35l7.251,53.454a20.313,20.313,0,0,0,4.066,9.592,22.863,22.863,0,0,1,4.819,18.467v87.437c0,12.046-8.432,13.783-8.517,13.8A133.9,133.9,0,0,1,607.919,545.169Zm-6.056-183.9a.9.9,0,0,0-.934.768L593.948,414.4a22.771,22.771,0,0,1-4.823,11.116,21.191,21.191,0,0,0-4.767,16.149l.011.185v88.936c0,.111-.162,5.672,2.659,8.594a5.92,5.92,0,0,0,4.5,1.764l.187.012a130.359,130.359,0,0,0,32.468,0c.143-.035,5.981-1.367,5.981-10.835l.024-87.839A19.887,19.887,0,0,0,626,426.288a23.355,23.355,0,0,1-4.693-11.052l-7.251-53.461a.891.891,0,0,0-.925-.761,72.867,72.867,0,0,1-11.147.258,1.193,1.193,0,0,0-.123-.007Z" transform="translate(155.871 124.441)"/>
  <path id="Path_73" data-name="Path 73" class="cls-3" d="M366.09,267.749h11.063a16.586,16.586,0,0,1,16.586,16.586v41.624a16.586,16.586,0,0,1-16.586,16.586H366.09A16.586,16.586,0,0,1,349.5,325.959V284.337a16.587,16.587,0,0,1,16.588-16.588Z" transform="translate(391.772 300.13)"/>
  <path id="Path_74" data-name="Path 74" class="cls-1" d="M582.218,322.723a71.064,71.064,0,0,1-10.943.255,2.387,2.387,0,0,0-2.627,2.071l-6.98,52.356a21.255,21.255,0,0,1-4.5,10.372,22.6,22.6,0,0,0-5.089,17.277v88.936s-.45,11.858,8.661,11.858a131.712,131.712,0,0,0,32.843,0s7.295-1.381,7.295-12.323v-87.57a21.419,21.419,0,0,0-4.5-17.412A21.8,21.8,0,0,1,592,378.232l-7.25-53.452a2.387,2.387,0,0,0-2.537-2.056Z" transform="translate(123.034 84.88)"/>
  <path id="Path_75" data-name="Path 75" class="cls-2" d="M577.919,509.169a132.97,132.97,0,0,1-16.493-1.026,8.865,8.865,0,0,1-6.566-2.69c-3.708-3.851-3.5-10.447-3.491-10.726V405.94a24.187,24.187,0,0,1,5.438-18.33,19.745,19.745,0,0,0,4.169-9.62l6.978-52.345a3.908,3.908,0,0,1,4.278-3.365,69.274,69.274,0,0,0,10.629-.257l.042,0a3.887,3.887,0,0,1,4.132,3.35l7.25,53.454a20.313,20.313,0,0,0,4.066,9.592,22.864,22.864,0,0,1,4.819,18.467v87.436c0,12.046-8.432,13.783-8.517,13.8A133.914,133.914,0,0,1,577.919,509.169Zm-6.056-183.9a.9.9,0,0,0-.934.768L563.948,378.4a22.768,22.768,0,0,1-4.823,11.116,21.19,21.19,0,0,0-4.767,16.149l.011.185v88.936c0,.111-.162,5.672,2.659,8.594a5.919,5.919,0,0,0,4.5,1.764l.187.012a130.369,130.369,0,0,0,32.468,0c.143-.035,5.981-1.367,5.981-10.835l.024-87.839A19.887,19.887,0,0,0,596,390.288a23.356,23.356,0,0,1-4.693-11.052l-7.251-53.461a.89.89,0,0,0-.925-.761,72.9,72.9,0,0,1-11.147.258,1.2,1.2,0,0,0-.123-.007Z" transform="translate(122.242 84.087)"/>
  <path id="Path_76" data-name="Path 76" class="cls-3" d="M336.09,231.749h11.063a16.586,16.586,0,0,1,16.586,16.586v41.624a16.586,16.586,0,0,1-16.586,16.586H336.09A16.586,16.586,0,0,1,319.5,289.959V248.337a16.587,16.587,0,0,1,16.588-16.588Z" transform="translate(358.144 259.777)"/>
  <circle id="Ellipse_17" data-name="Ellipse 17" class="cls-9" cx="53.024" cy="53.024" r="53.024" transform="translate(66.147 44.54)"/>
  <circle id="Ellipse_18" data-name="Ellipse 18" class="cls-9" cx="53.024" cy="53.024" r="53.024" transform="translate(1287.809)"/>
  <circle id="Ellipse_19" data-name="Ellipse 19" class="cls-9" cx="38.177" cy="38.177" r="38.177" transform="translate(696.065 163.312)"/>
</svg>
