<svg id="svg" xmlns="http://www.w3.org/2000/svg" width="800.675" height="796.358" viewBox="0 0 800.675 796.358">
  <defs>
    <style>
      .cls-1 {
        fill: #3f3d56;
      }

      .cls-2 {
        fill: #fff;
      }

      .cls-3 {
        fill: #ffb7b7;
      }

      .cls-4 {
        opacity: 0.15;
      }

      .cls-5 {
        fill: #e6e6e6;
      }

      .cls-6 {
        fill: #6c63ff;
      }

      .cls-7 {
        fill: #ccc;
      }

      .cls-8 {
        opacity: 0.1;
      }
    </style>
  </defs>
  <path id="Path_77" data-name="Path 77" class="cls-1" d="M871.207,986.413H382.349a43.753,43.753,0,0,1-43.7-43.7V233.758a43.753,43.753,0,0,1,43.7-43.7H871.207a43.753,43.753,0,0,1,43.7,43.7V942.71A43.753,43.753,0,0,1,871.207,986.413Z" transform="translate(-338.646 -190.055)"/>
  <path id="Path_78" data-name="Path 78" class="cls-2" d="M861.871,948.85H371.292a13.487,13.487,0,0,1-13.472-13.472V221.73a13.487,13.487,0,0,1,13.472-13.472H861.871a13.487,13.487,0,0,1,13.472,13.472V935.378a13.488,13.488,0,0,1-13.472,13.472Z" transform="translate(-328.449 -180.375)"/>
  <circle id="Ellipse_21" data-name="Ellipse 21" class="cls-2" cx="3.718" cy="3.718" r="3.718" transform="translate(282.556 9.666)"/>
  <path id="Path_79" data-name="Path 79" class="cls-3" d="M617.911,437.465l-16.241-48.64-.275-.846,68.392-43.2,3.636,4.9,19.047,25.649-6.962,20.745-18,53.6-.789,2.356L700.051,476.8c1.321,2.436,2.418,4.657,3.31,6.7,9.949,22.671-4.778,21.642-4.778,21.642L630.8,476.091Z" transform="translate(-198.92 -107.776)"/>
  <path id="Path_80" data-name="Path 80" class="cls-3" d="M643.682,450.407l-2.988-8.954L626.029,397.5l-3.055-9.163-2.566-7.668,33.441-21.13L688.8,337.466l22.683,30.549L704.609,388.5l-3.342,9.953-5.166,15.4-10.365,30.868,33.327,24.778A64.652,64.652,0,0,1,725,483.508a21.544,21.544,0,0,1,.816,6.276,7.685,7.685,0,0,1-8.214,8.049l-67.78-29.052Z" transform="translate(-188.809 -111.664)"/>
  <path id="Path_81" data-name="Path 81" class="cls-4" d="M296.246,240.523l-3.934-41.464,19.6-10.627,1.282,2.367-18.037,9.779,3.647,38.439,40.073,27.443-1.52,2.22Z" transform="translate(155.447 100.204)"/>
  <rect id="Rectangle_1" data-name="Rectangle 1" class="cls-4" width="2.69" height="50.282" transform="matrix(0.594, -0.804, 0.804, 0.594, 492.849, 341.505)"/>
  <path id="Path_82" data-name="Path 82" class="cls-2" d="M463.2,297.716,259.753,154.7,54.232,296.383l202.456,85.492Z" transform="translate(28.84 82.265)"/>
  <path id="Path_83" data-name="Path 83" class="cls-3" d="M566.955,385l68.507-66.982,122.522-8.278,152.3,145.434L1021.251,515.9,989.989,607.83,856.055,544.254c-27.268-2-44.814-11.052-55.911-20.568A67.557,67.557,0,0,1,789.89,512.7a49.383,49.383,0,0,1-7.585-14.159l-54.436-69.953-11.223-14.436-7.269-9.342-23.76-30.53-1.71-2.195-40.366-1.069L622.533,398.6l-14.756,19.354a32.805,32.805,0,0,1-7.042,18.707c-13.233,16.1-40.063,12.952-40.063,12.952Z" transform="translate(-220.576 -126.409)"/>
  <path id="Path_84" data-name="Path 84" class="cls-2" d="M395.169,437.164h.147l84.023,35.878L594.3,522.132a3.708,3.708,0,0,0,2.84.015L715.746,472.94l86.088-35.718.132-.059h.147a5.129,5.129,0,0,1,5.123,5.123v222.5a5.129,5.129,0,0,1-5.123,5.123H395.169a5.129,5.129,0,0,1-5.123-5.123v-222.5A5.129,5.129,0,0,1,395.169,437.164Z" transform="translate(-311.313 -58.647)"/>
  <path id="Path_85" data-name="Path 85" class="cls-1" d="M393.407,487.84a.729.729,0,0,0,.418-.131L596.241,346.74a3.671,3.671,0,0,1,4.193.007l200.959,140.96a.732.732,0,1,0,.841-1.2L601.274,345.548a5.14,5.14,0,0,0-5.87-.01L392.987,486.507a.732.732,0,0,0,.419,1.333Z" transform="translate(-309.915 -107.858)"/>
  <path id="Path_86" data-name="Path 86" class="cls-5" d="M447.013,300.668,255.243,158.543,62.019,310.781,245.363,419.47l99.54-22.689Z" transform="translate(32.981 84.31)"/>
  <path id="Path_87" data-name="Path 87" class="cls-6" d="M581.395,565.839h94.739a4.426,4.426,0,1,0,.013-8.852H581.395a4.426,4.426,0,0,0-.013,8.852Z" transform="translate(-211.913 5.073)"/>
  <path id="Path_88" data-name="Path 88" class="cls-6" d="M621.054,553.416h33.99a4.426,4.426,0,1,0,.013-8.852h-34a4.426,4.426,0,0,0-.013,8.852Z" transform="translate(-190.823 -1.533)"/>
  <path id="Path_89" data-name="Path 89" class="cls-2" d="M565.586,565.347a5.533,5.533,0,0,0,2.1-.411l118.27-49.074V362.253a5.129,5.129,0,0,0-5.123-5.123H453.941a5.129,5.129,0,0,0-5.123,5.123V515.97l.222.1,114.383,48.848A5.575,5.575,0,0,0,565.586,565.347Z" transform="translate(-280.059 -101.208)"/>
  <path id="Path_90" data-name="Path 90" class="cls-1" d="M563.406,565.376,448.578,516.338V362.38a5.5,5.5,0,0,1,5.489-5.489H680.96a5.5,5.5,0,0,1,5.489,5.489V516.233L567.953,565.4a5.951,5.951,0,0,1-4.547-.026Zm121.579-203a4.03,4.03,0,0,0-4.026-4.026H454.068a4.03,4.03,0,0,0-4.026,4.025V515.373l113.936,48.656a4.478,4.478,0,0,0,3.417.02l117.591-48.793Z" transform="translate(-280.186 -101.335)"/>
  <path id="Path_91" data-name="Path 91" class="cls-1" d="M390.762,442.288v222.5a5.129,5.129,0,0,0,5.123,5.123H802.828a5.129,5.129,0,0,0,5.123-5.123v-222.5a5.129,5.129,0,0,0-5.123-5.123h-.146l-.132.058L716.463,472.94,597.857,522.147a3.708,3.708,0,0,1-2.84-.015L480.055,473.043l-84.022-35.879h-.146A5.129,5.129,0,0,0,390.762,442.288Zm1.464,0a3.671,3.671,0,0,1,3.513-3.659l84.317,36,114.383,48.847a5.212,5.212,0,0,0,3.982.022l118.043-48.98,86.5-35.893a3.668,3.668,0,0,1,3.52,3.66v222.5a3.661,3.661,0,0,1-3.659,3.66H395.886a3.661,3.661,0,0,1-3.66-3.66Z" transform="translate(-310.931 -58.647)"/>
  <path id="Path_92" data-name="Path 92" class="cls-6" d="M467.162,398.681h80.51a5.855,5.855,0,0,0,0-11.711h-80.51a5.855,5.855,0,0,0,0,11.711Z" transform="translate(-273.417 -85.339)"/>
  <path id="Path_93" data-name="Path 93" class="cls-6" d="M467.193,382.435h38.791a5.855,5.855,0,0,0,0-11.711H467.193a5.855,5.855,0,1,0,0,11.711Z" transform="translate(-273.401 -93.978)"/>
  <path id="Path_94" data-name="Path 94" class="cls-7" d="M488.946,436.905H611.907a5.855,5.855,0,0,0,0-11.711H488.946a5.855,5.855,0,0,0,0,11.711Z" transform="translate(-261.833 -65.012)"/>
  <path id="Path_95" data-name="Path 95" class="cls-7" d="M488.946,454.586H611.907a5.855,5.855,0,0,0,0-11.711H488.946a5.855,5.855,0,0,0,0,11.711Z" transform="translate(-261.833 -55.61)"/>
  <path id="Path_96" data-name="Path 96" class="cls-8" d="M673.2,377.77l24.422-1.412L795.2,496.617l-34.474-5.273-20.418-3.085a67.554,67.554,0,0,1-10.254-10.982l-22.688-6.736-10.441-7.714C697.579,465.333,673.2,377.77,673.2,377.77Z" transform="translate(-160.738 -90.982)"/>
  <path id="Path_97" data-name="Path 97" class="cls-3" d="M571.346,379.845a17.231,17.231,0,0,1,19.573-14.393l26.034,3.621,32.208,4.482,24.891,3.46,29.745-1.727,27-1.57,15.951-.92L852.812,503.514l-91.19-27.072-10.441-7.714L705.47,434.964s-14.978-2.76-38.589-8.291c-3.513-.834-43.259-10.809-61.93-16.233-3.617-1.054-6.862-2.156-9.795-3.3C574.339,398.942,570.174,388.437,571.346,379.845Z" transform="translate(-214.996 -96.883)"/>
  <path id="Path_98" data-name="Path 98" class="cls-4" d="M581.017,394.943c.093-.011,9.385-1.168,13.352-7.973,2.672-4.584,2.4-10.758-.8-18.348l2.479-1.045c3.553,8.422,3.766,15.409.633,20.767-4.659,7.969-14.924,9.224-15.359,9.273Z" transform="translate(-209.757 -95.652)"/>
  <path id="Path_99" data-name="Path 99" class="cls-4" d="M304.613,196.225l-.006-2.69,47.841-.077-50.435-31.533,1.426-2.282,58.365,36.49Z" transform="translate(160.605 84.895)"/>
</svg>
