<svg id="svg" xmlns="http://www.w3.org/2000/svg" width="691" height="571.228" viewBox="0 0 691 571.228">
  <defs>
    <style>
      .cls-1 {
        fill: #cacaca;
      }

      .cls-2 {
        fill: #3f3d56;
      }

      .cls-3 {
        fill: #e4e4e4;
      }

      .cls-4 {
        fill: #f0f0f0;
      }

      .cls-5 {
        fill: #6c63ff;
      }

      .cls-6 {
        fill: #a0616a;
      }

      .cls-7 {
        fill: #2f2e41;
      }

      .cls-8 {
        fill: #ffb6b6;
      }

      .cls-9 {
        fill: #ffb8b8;
      }
    </style>
  </defs>
  <path id="Path_1" data-name="Path 1" class="cls-1" d="M944.5,200.386h-689a1,1,0,0,1,0-2h689a1,1,0,0,1,0,2Z" transform="translate(-254.5 -164.386)"/>
  <circle id="Ellipse_1" data-name="Ellipse 1" class="cls-2" cx="11" cy="11" r="11" transform="translate(12.508)"/>
  <circle id="Ellipse_2" data-name="Ellipse 2" class="cls-2" cx="11" cy="11" r="11" transform="translate(50.508)"/>
  <circle id="Ellipse_3" data-name="Ellipse 3" class="cls-2" cx="11" cy="11" r="11" transform="translate(88.508)"/>
  <path id="Path_2" data-name="Path 2" class="cls-3" d="M687.313,302.2H512.687a8.225,8.225,0,1,1,0-16.45H687.313a8.225,8.225,0,1,1,0,16.45Z" transform="translate(-254.5 -164.386)"/>
  <path id="Path_3" data-name="Path 3" class="cls-3" d="M659.158,274.045H540.842a8.225,8.225,0,1,1,0-16.45H659.158a8.225,8.225,0,0,1,0,16.45Z" transform="translate(-254.5 -164.386)"/>
  <circle id="Ellipse_4" data-name="Ellipse 4" class="cls-4" cx="73" cy="73" r="73" transform="translate(50.732 224.228)"/>
  <circle id="Ellipse_5" data-name="Ellipse 5" class="cls-4" cx="73" cy="73" r="73" transform="translate(522.732 224.228)"/>
  <circle id="Ellipse_6" data-name="Ellipse 6" class="cls-4" cx="73" cy="73" r="73" transform="translate(272.732 224.228)"/>
  <path id="Path_4" data-name="Path 4" class="cls-5" d="M885.712,493.253a112.5,112.5,0,0,0-17.946-7.552l-.79-8.73-32.005-3.448L830.9,484.681l-11.486,4.31a5.6,5.6,0,0,0-1.166.607h-.012a11.342,11.342,0,0,0-5.269,1.821,11.665,11.665,0,0,0-2.817,2.525c1.554,1.178,3.168,2.271,4.832,3.315l.073.036c.474.291.959.583,1.444.862.875.522,1.773,1.02,2.672,1.493l.571.291c1.311.68,2.647,1.323,4.019,1.918.279.121.583.243.862.364.024.012.036.012.06.024.644.267,1.287.522,1.943.765a63.814,63.814,0,0,0,6.581,2.113,67.676,67.676,0,0,0,17.448,2.283c2.15,0,4.274-.1,6.375-.3a67.39,67.39,0,0,0,14.133-2.853c.011,0,.025-.012.036-.012a66.316,66.316,0,0,0,8.488-3.363c.011-.012.036-.012.049-.024.619-.291,1.214-.607,1.821-.911l.292-.146c.486-.255.972-.51,1.458-.777,1.214-.668,2.4-1.372,3.581-2.125.328-.194.644-.4.972-.619.461-.3.922-.619,1.372-.947C888.1,494.6,886.926,493.909,885.712,493.253Z" transform="translate(-254.5 -164.386)"/>
  <circle id="Ellipse_7" data-name="Ellipse 7" class="cls-6" cx="23.051" cy="23.051" r="23.051" transform="translate(572.166 257.516)"/>
  <path id="Path_5" data-name="Path 5" class="cls-7" d="M834.241,433.725c2.386,2.824,6.424,3.621,10.149,3.947,7.565.663,18.566-.413,25.959-2.12.528,5.114-.911,10.629,2.1,14.836a68.874,68.874,0,0,0,2.447-15.613,14.945,14.945,0,0,0-.865-6.687,6.15,6.15,0,0,0-5.239-3.863,13.13,13.13,0,0,1,5.857-2.5l-7.319-3.678,1.88-1.93-13.251-.811,3.838-2.438a83.223,83.223,0,0,0-17.435-.55c-2.7.2-5.523.579-7.711,2.144s-3.452,4.674-2.094,6.971a10.122,10.122,0,0,0-7.714,6.121,16.34,16.34,0,0,0-.586,7.854,55.676,55.676,0,0,0,2.919,12.35Z" transform="translate(-254.5 -164.386)"/>
  <circle id="Ellipse_188" data-name="Ellipse 188" class="cls-7" cx="9.746" cy="9.746" r="9.746" transform="translate(340.036 238.212)"/>
  <path id="Path_969" data-name="Path 969" class="cls-7" d="M595.826,417.414a9.747,9.747,0,0,1,3.544-16.359,9.744,9.744,0,1,0,4.518,18.876,9.723,9.723,0,0,1-8.063-2.518Z" transform="translate(-254.5 -164.386)"/>
  <circle id="Ellipse_189" data-name="Ellipse 189" class="cls-7" cx="28.631" cy="28.631" r="28.631" transform="translate(321.347 253.146)"/>
  <path id="Path_970" data-name="Path 970" class="cls-7" d="M579.008,430.4a28.626,28.626,0,0,1,39.678-3c-.234-.223-.467-.447-.709-.663a28.631,28.631,0,1,0-38.208,42.65l.164.145c.243.216.493.42.741.627a28.626,28.626,0,0,1-1.666-39.757Z" transform="translate(-254.5 -164.386)"/>
  <circle id="Ellipse_190" data-name="Ellipse 190" class="cls-6" cx="18.44" cy="18.44" r="18.44" transform="translate(331.296 273.285)"/>
  <path id="Path_6" data-name="Path 6" class="cls-5" d="M637.232,504.155v6.187c-1.133.724-2.277,1.4-3.444,2.043-.467.257-.934.5-1.4.747l-.28.14c-.584.292-1.156.6-1.751.876-.011.012-.035.012-.047.023a63.749,63.749,0,0,1-8.16,3.234c-.011,0-.023.012-.035.012a64.8,64.8,0,0,1-13.588,2.743c-2.02.2-4.062.292-6.129.292a65.06,65.06,0,0,1-16.774-2.195,63.171,63.171,0,0,1-8.195-2.767c-.023-.012-.035-.012-.059-.023-.268-.117-.56-.234-.829-.35-1.319-.572-2.6-1.191-3.864-1.844l-.548-.28c-1.343-.712-2.662-1.459-3.958-2.265l-.07-.035a63.935,63.935,0,0,1-5.767-4.051c-.946-.724-1.856-1.483-2.743-2.276-.467-.4-.934-.817-1.377-1.226a63.18,63.18,0,0,1-4.845-5,23.613,23.613,0,0,1,.887-3.584l.011-.012a5.234,5.234,0,0,1,.245-.584,4.648,4.648,0,0,1,.222-.49c2.09-3.911,5.872-4.88,10.565-5.09,2.65-.117,5.58.012,8.674-.023,1.634-.012,3.327-.07,5.019-.222,10.681-.969,8.744-7.273,9.222-10.67.479-3.292,3.444-.444,3.642-.257l.011.012a37.673,37.673,0,0,0,19.378,3.4c1.144-.14,2.288-.222,3.432-.257,3.012-.035,2.358.829,1.32,1.541a13.049,13.049,0,0,1-1.576.887s-.479,2.918-.969,7.284c-.467,4.179,14.253,5.627,17.137,6.537h.011a10.527,10.527,0,0,1,6.631,7.541Z" transform="translate(-254.5 -164.386)"/>
  <ellipse id="Ellipse_191" data-name="Ellipse 191" class="cls-6" cx="1.456" cy="2.669" rx="1.456" ry="2.669" transform="translate(329.597 285.175)"/>
  <ellipse id="Ellipse_192" data-name="Ellipse 192" class="cls-6" cx="1.456" cy="2.669" rx="1.456" ry="2.669" transform="translate(366.963 285.175)"/>
  <path id="Path_7" data-name="Path 7" class="cls-7" d="M354.877,466.726l3.5,12.135,44.766-.79-.392-22.234c-.31-17.6-12.748-32.778-30.347-32.467s-28.789,15.189-28.478,32.787l2.557,22.913,7.3-.129Z" transform="translate(-254.5 -164.386)"/>
  <circle id="Ellipse_8" data-name="Ellipse 8" class="cls-8" cx="20.085" cy="20.085" r="20.085" transform="translate(99.822 270.655)"/>
  <path id="Path_8" data-name="Path 8" class="cls-7" d="M396.395,441.023a7.79,7.79,0,0,0-1.384-4.3c-.092-.13-.185-.251-.278-.371a7.827,7.827,0,0,0-6.276-3l-14.436.26-14.427.251a7.817,7.817,0,0,0-7.659,7.938l3.435,6.916,1.977,3.974.325-.186c12.486-7.019,17.592-7.111,34.118-.585l.334.13,1.309-3.352,2.971-7.6Z" transform="translate(-254.5 -164.386)"/>
  <path id="Path_9" data-name="Path 9" class="cls-5" d="M414.387,486.448c-4.308-4.3-18.884-2.59-18.884-2.59l-38.471,2.423c-8.532.631-16.219,7.464-19,10.231.445.436.9.863,1.365,1.272a53.853,53.853,0,0,0,63.333,6.016c4.122-2.46,9.4-5.41,12.7-8.854,1.309-1.355,2.357-1.328,3.517-2.814A11.589,11.589,0,0,0,414.387,486.448Z" transform="translate(-254.5 -164.386)"/>
  <circle id="Ellipse_9" data-name="Ellipse 9" class="cls-4" cx="73" cy="73" r="73" transform="translate(50.732 425.228)"/>
  <circle id="Ellipse_10" data-name="Ellipse 10" class="cls-4" cx="73" cy="73" r="73" transform="translate(522.732 425.228)"/>
  <circle id="Ellipse_11" data-name="Ellipse 11" class="cls-4" cx="73" cy="73" r="73" transform="translate(272.732 425.228)"/>
  <circle id="Ellipse_12" data-name="Ellipse 12" class="cls-9" cx="20.181" cy="20.181" r="20.181" transform="translate(102.356 468.337)"/>
  <path id="Path_10" data-name="Path 10" class="cls-7" d="M357.944,659.218s1.715-3.011,1.316-13.071,14.92-4.37,27.72-5.33,10.09,16.795,10.09,16.795.923-1.055,2.9-9.624-2.512-17.108-2.512-17.108c-1.322-9-8.447-6.118-8.447-6.118,3.431,1.336,2.772,4.192,2.772,4.192-2.9-5.092-10.03-2.207-10.03-2.207-9.5-5.963-19.134,1.89-19.134,1.89-11.48,2.605-4.747,11.735-4.747,11.735C346.328,646.206,357.944,659.218,357.944,659.218Z" transform="translate(-254.5 -164.386)"/>
  <path id="Path_11" data-name="Path 11" class="cls-5" d="M410.712,700.269a112.494,112.494,0,0,0-17.946-7.552l-.79-8.73-32.005-3.448L355.9,691.7l-11.486,4.31a5.605,5.605,0,0,0-1.166.607h-.012a11.342,11.342,0,0,0-5.269,1.821,11.664,11.664,0,0,0-2.816,2.526c1.554,1.178,3.168,2.271,4.832,3.315l.073.036c.474.291.959.583,1.444.862.875.522,1.773,1.02,2.672,1.493l.571.291c1.311.68,2.647,1.323,4.019,1.918.279.121.583.243.862.364.024.012.036.012.06.024.644.267,1.287.522,1.943.765a63.828,63.828,0,0,0,6.581,2.113,67.674,67.674,0,0,0,17.448,2.283c2.15,0,4.274-.1,6.375-.3a67.394,67.394,0,0,0,14.133-2.853c.011,0,.025-.012.036-.012a66.3,66.3,0,0,0,8.487-3.363c.011-.012.036-.012.049-.024.619-.291,1.214-.607,1.821-.911l.292-.146c.486-.255.972-.51,1.458-.777,1.214-.668,2.4-1.372,3.581-2.125.328-.194.644-.4.972-.619.461-.3.922-.619,1.372-.947C413.1,701.617,411.926,700.924,410.712,700.269Z" transform="translate(-254.5 -164.386)"/>
  <path id="Path_12" data-name="Path 12" class="cls-5" d="M627.988,696l-12.15-1.1-7.27-5.31a.041.041,0,0,0-.009-.028l-.019.009-.291-.216-.038.338-12.271,4.719L583.333,691.5l-4.362,4.719-19.428,6.445a9.874,9.874,0,0,0-2.43,2.3v.012c.816.638,1.654,1.268,2.5,1.864a64.482,64.482,0,0,0,5.995,3.846,67.54,67.54,0,0,0,16,6.576q.76.211,1.52.394c.882.216,1.773.422,2.664.591q2.7.563,5.469.882a67.047,67.047,0,0,0,8.171.488q2.8,0,5.544-.216a68.349,68.349,0,0,0,9.55-1.454c.113-.028.225-.047.338-.084A67.543,67.543,0,0,0,628.831,713c.685-.328,1.37-.666,2.045-1.013q2.491-1.281,4.841-2.758c1.182-.732,2.336-1.51,3.462-2.317.694-.5,1.379-1,2.054-1.529l-.073-.155A16.162,16.162,0,0,0,627.988,696Z" transform="translate(-254.5 -164.386)"/>
  <path id="Path_13" data-name="Path 13" class="cls-7" d="M616.382,635.363a22.35,22.35,0,0,0-4.756-3.593c-10.742-5.929-22.477-6.032-32.2-.291a30.3,30.3,0,0,0-6.557,5.206,30.681,30.681,0,0,0-8.528,21.145v23.377h61.146v-25.77C625.491,648.534,621.692,640.541,616.382,635.363Z" transform="translate(-254.5 -164.386)"/>
  <circle id="Ellipse_13" data-name="Ellipse 13" class="cls-9" cx="22.084" cy="22.084" r="22.084" transform="translate(317.126 472.016)"/>
  <path id="Path_14" data-name="Path 14" class="cls-7" d="M616.363,638.44a2.731,2.731,0,0,0-1.548-2.2c-13.818-6.454-27.834-6.285-41.634.507h-.253l-.085.347c-2.72,20.957-2.336,21.417-2.167,21.6a2.729,2.729,0,0,0,.966.7,2.647,2.647,0,0,0,1.079.225h31.5l.075-.357a51.447,51.447,0,0,1,1.407-5.554,61.666,61.666,0,0,1,3.461,5.685l.131.225h6.126a2.176,2.176,0,0,0,.347-.028,2.628,2.628,0,0,0,1.642-.854C617.583,658.562,617.977,658.131,616.363,638.44Z" transform="translate(-254.5 -164.386)"/>
  <path id="Path_15" data-name="Path 15" class="cls-5" d="M866.745,693.165l-.8-8.832-32.421-3.493-4.1,11.3L817.785,696.5a5.689,5.689,0,0,0-1.2.613,11.758,11.758,0,0,0-6.345,2.578c.265.219.53.43.8.64.055.055.119.1.174.146.741.576,1.5,1.143,2.267,1.682.2.146.4.293.613.43a60.851,60.851,0,0,0,5.23,3.319q2.578,1.467,5.294,2.706a65.462,65.462,0,0,0,10.3,3.7q.74.206,1.481.384c.859.21,1.728.411,2.6.576q2.633.549,5.33.859a65.326,65.326,0,0,0,7.963.476q2.729,0,5.4-.21A66.6,66.6,0,0,0,867,712.987c.11-.027.22-.046.329-.082a65.834,65.834,0,0,0,13.6-4.736c.667-.32,1.335-.649,1.993-.987q2.428-1.248,4.718-2.688c.549-.338,1.088-.686,1.628-1.051C880.98,697.864,868.939,693.869,866.745,693.165Z" transform="translate(-254.5 -164.386)"/>
  <circle id="Ellipse_109" data-name="Ellipse 109" class="cls-6" cx="23.346" cy="23.346" r="23.346" transform="translate(570.627 464.169)"/>
  <path id="Path_696" data-name="Path 696" class="cls-7" d="M832.8,640.527c2.417,2.86,6.506,3.667,10.279,3.995,7.662.672,18.8-.418,26.292-2.146.538,5.18-.922,10.765,2.128,15.026a69.756,69.756,0,0,0,2.478-15.814,15.144,15.144,0,0,0-.876-6.773A6.228,6.228,0,0,0,867.8,630.9a1.947,1.947,0,0,0,.427-2.037,6.622,6.622,0,0,0-5.02-4.974l-8.4-2.025s-7.886-3.459-13.778-3.025c-2.735.2-5.594.586-7.81,2.171s-3.5,4.734-2.12,7.06a10.251,10.251,0,0,0-7.812,6.2,16.55,16.55,0,0,0-.593,7.955,56.379,56.379,0,0,0,2.956,12.508Z" transform="translate(-254.5 -164.386)"/>
  <path id="Path_16" data-name="Path 16" class="cls-7" d="M624.156,442a8.976,8.976,0,0,0-4.392-5.27,25.043,25.043,0,0,0-6.623-2.329,43.583,43.583,0,0,0-12.4-1.7c-4.184.206-8.46,1.65-11.3,4.726s-3.9,7.962-1.826,11.6l-.229.941a17.285,17.285,0,0,0,16.893-8.321,15.78,15.78,0,0,0,14.935,7.257,7,7,0,0,0,2.667-.767A5.549,5.549,0,0,0,624.156,442Z" transform="translate(-254.5 -164.386)"/>
  <path id="Path_17" data-name="Path 17" class="cls-2" d="M921.732,171.114h-27a2,2,0,0,1,0-4h27a2,2,0,0,1,0,4Z" transform="translate(-254.5 -164.386)"/>
  <path id="Path_18" data-name="Path 18" class="cls-2" d="M921.732,178.614h-27a2,2,0,0,1,0-4h27a2,2,0,0,1,0,4Z" transform="translate(-254.5 -164.386)"/>
  <path id="Path_19" data-name="Path 19" class="cls-2" d="M921.732,186.114h-27a2,2,0,0,1,0-4h27a2,2,0,0,1,0,4Z" transform="translate(-254.5 -164.386)"/>
</svg>
