<svg xmlns="http://www.w3.org/2000/svg" width="860.244" height="688" viewBox="0 0 860.244 688">
  <defs>
    <style>
      .cls-1 {
        fill: #cacaca;
      }

      .cls-2 {
        fill: #6c63ff;
      }

      .cls-3 {
        fill: #e4e4e4;
      }

      .cls-4 {
        fill: #ffb6b6;
      }

      .cls-5 {
        fill: #2f2e41;
      }

      .cls-6 {
        fill: #ffb8b8;
      }

      .cls-7 {
        fill: #3f3d56;
      }
    </style>
  </defs>
  <g id="svg" transform="translate(0)">
    <path id="Path_100" data-name="Path 100" class="cls-1" d="M386.983,492H174.876a5.006,5.006,0,0,1-5-5V233a5.006,5.006,0,0,1,5-5H386.983a5.006,5.006,0,0,1,5,5V487a5.006,5.006,0,0,1-5,5ZM174.876,230a3,3,0,0,0-3,3V487a3,3,0,0,0,3,3H386.983a3,3,0,0,0,3-3V233a3,3,0,0,0-3-3Z" transform="translate(-169.876 -106)"/>
    <rect id="Rectangle_2" data-name="Rectangle 2" class="cls-2" width="155" height="96" transform="translate(33.553 176)"/>
    <rect id="Rectangle_3" data-name="Rectangle 3" class="cls-3" width="39" height="24" transform="translate(33.553 308)"/>
    <rect id="Rectangle_4" data-name="Rectangle 4" class="cls-3" width="39" height="24" transform="translate(149.553 308)"/>
    <rect id="Rectangle_5" data-name="Rectangle 5" class="cls-3" width="39" height="24" transform="translate(91.553 308)"/>
    <path id="Path_101" data-name="Path 101" class="cls-1" d="M678.983,370H466.876a5.006,5.006,0,0,1-5-5V111a5.006,5.006,0,0,1,5-5H678.983a5.006,5.006,0,0,1,5,5V365A5.006,5.006,0,0,1,678.983,370ZM466.876,108a3,3,0,0,0-3,3V365a3,3,0,0,0,3,3H678.983a3,3,0,0,0,3-3V111a3,3,0,0,0-3-3Z" transform="translate(-169.876 -106)"/>
    <path id="Path_102" data-name="Path 102" class="cls-1" d="M681.516,531H469.41a5.006,5.006,0,0,1-5-5V451a5.006,5.006,0,0,1,5-5H681.516a5.006,5.006,0,0,1,5,5v75a5.006,5.006,0,0,1-5,5ZM469.41,448a3,3,0,0,0-3,3v75a3,3,0,0,0,3,3H681.516a3,3,0,0,0,3-3V451a3,3,0,0,0-3-3Z" transform="translate(-169.876 -106)"/>
    <rect id="Rectangle_6" data-name="Rectangle 6" class="cls-3" width="154" height="24" rx="12" transform="translate(326.053 170.5)"/>
    <rect id="Rectangle_7" data-name="Rectangle 7" class="cls-3" width="154" height="24" rx="12" transform="translate(326.053 208.5)"/>
    <circle id="Ellipse_22" data-name="Ellipse 22" class="cls-2" cx="56" cy="56" r="56" transform="translate(347.053 31.5)"/>
    <rect id="Rectangle_8" data-name="Rectangle 8" class="cls-3" width="81" height="24" rx="12" transform="translate(397.087 370.5)"/>
    <circle id="Ellipse_23" data-name="Ellipse 23" class="cls-2" cx="22" cy="22" r="22" transform="translate(333.087 360.5)"/>
    <path id="Path_103" data-name="Path 103" class="cls-1" d="M1029.12,794h-381a1,1,0,0,1,0-2h381a1,1,0,0,1,0,2Z" transform="translate(-169.876 -106)"/>
    <path id="Path_104" data-name="Path 104" class="cls-4" d="M916.255,578.045a8.33,8.33,0,0,1,3.327-12.332l-2.944-29.455,13.62,7.149.708,26.875a8.375,8.375,0,0,1-14.711,7.763Z" transform="translate(-169.876 -106)"/>
    <path id="Path_105" data-name="Path 105" class="cls-4" d="M796.97,573.9a8.33,8.33,0,0,1,3.327-12.332l-2.944-29.455,13.62,7.149.708,26.875A8.375,8.375,0,0,1,796.97,573.9Z" transform="translate(-169.876 -106)"/>
    <path id="Path_106" data-name="Path 106" class="cls-4" d="M717.949,675.734H707.794l-4.832-39.172h14.989Z"/>
    <path id="Path_107" data-name="Path 107" class="cls-5" d="M890.415,791.578H857.669v-.414a12.746,12.746,0,0,1,12.745-12.745h20Z" transform="translate(-169.876 -106)"/>
    <path id="Path_108" data-name="Path 108" class="cls-4" d="M642.568,675.734H632.412l-4.831-39.172h14.988Z"/>
    <path id="Path_109" data-name="Path 109" class="cls-5" d="M815.034,791.578H782.288v-.414a12.746,12.746,0,0,1,12.745-12.745h20Z" transform="translate(-169.876 -106)"/>
    <circle id="Ellipse_24" data-name="Ellipse 24" class="cls-6" cx="26.819" cy="26.819" r="26.819" transform="translate(661.375 234.235) rotate(-28.663)"/>
    <path id="Path_110" data-name="Path 110" class="cls-5" d="M638.578,453.984l-4.97,7.873-9.94,205.018,20.709-.828L685.8,492.917,702.363,667.7l18.224.829,14.787-203.261Z"/>
    <path id="Path_111" data-name="Path 111" class="cls-7" d="M916.971,405.079l-33.963-18.224-38.1-2.485-33.578,20.709s29.437,86.979-2.87,137.509l-4.971,24.023L906.2,574.066s-6.627-107.688,2.485-120.942S916.971,405.079,916.971,405.079Z" transform="translate(-169.876 -106)"/>
    <path id="Path_112" data-name="Path 112" class="cls-7" d="M905.25,409.592l11.721-4.514s20.709,18.224,19.881,62.128-5.3,92.777-5.3,92.777l-15.406,2.485-8.284-71.24-11.6-62.128Z" transform="translate(-169.876 -106)"/>
    <path id="Path_113" data-name="Path 113" class="cls-7" d="M823.489,409.592l-11.721-4.514s-20.709,18.225-19.881,62.129,5.3,92.777,5.3,92.777l15.406,2.485,8.284-71.24,11.6-62.128Z" transform="translate(-169.876 -106)"/>
    <path id="Path_114" data-name="Path 114" class="cls-5" d="M887.039,323.849a23.136,23.136,0,0,0-17.916-6.558c-5.772.466-6.148.606-11.333,3.185a91.523,91.523,0,0,0-9.4,5.141c-.028-1.232-5.144-5.945-5.972-5.032s2.135,6.841,1.473,7.881-6.646-2.677-7.272-3.739c4.623,6.375,10.727,18.979,9.262,26.716a7.716,7.716,0,0,1,13.476,4.642c.326,5.29-4.576,11.09-1.37,15.311,1.834,2.415,5.327,2.616,8.36,2.6l22.435-2.5c4.82-7.682,7.825-13.774,9.137-22.747S893.471,330.242,887.039,323.849Z" transform="translate(-169.876 -106)"/>
  </g>
</svg>
