<svg xmlns="http://www.w3.org/2000/svg" width="1584" height="1065.291" viewBox="0 0 1584 1065.291">
  <defs>
    <style>
      .cls-1 {
        fill: #2f2e41;
      }

      .cls-2 {
        fill: #ffb8b8;
      }

      .cls-3 {
        fill: #3f3d56;
      }

      .cls-4 {
        fill: #6c63ff;
      }

      .cls-5 {
        fill: #fff;
      }

      .cls-6 {
        fill: #f2f2f2;
      }

      .cls-7 {
        fill: #a0616a;
      }

      .cls-8 {
        fill: #cacaca;
      }
    </style>
  </defs>
  <g id="svg" transform="translate(0 0)">
    <path id="Path_121" data-name="Path 121" class="cls-1" d="M846.857,290.338l5.082-40.733A55.006,55.006,0,0,1,961.1,263.224l-5.082,40.733a7.4,7.4,0,0,1-8.247,6.417l-94.5-11.79A7.4,7.4,0,0,1,846.857,290.338Z" transform="translate(424.283 -151.327)"/>
    <circle id="Ellipse_25" data-name="Ellipse 25" class="cls-2" cx="40.328" cy="40.328" r="40.328" transform="translate(1276.079 70.507)"/>
    <path id="Path_122" data-name="Path 122" class="cls-1" d="M842.635,245.568a43.561,43.561,0,0,1,48.564-37.79l8.147,1.016a43.561,43.561,0,0,1,37.79,48.564l-.1.815-17.217-2.148L916,238.849l-3.226,16.3-8.9-1.11-1.928-8.666-1.628,8.222-57.785-7.209Z" transform="translate(420.267 -145.642)"/>
    <path id="Path_123" data-name="Path 123" class="cls-2" d="M769.553,320.03a18.577,18.577,0,0,0,27.761,6.384l36.629,21.457,18.468-19.079-52.152-29.575a18.677,18.677,0,0,0-30.705,20.813Z" transform="translate(349.611 -65.337)"/>
    <path id="Path_124" data-name="Path 124" class="cls-3" d="M868.214,373.552c-27.018,0-74.562-12.1-77.195-12.771l-.832-.213,7.483-37.886,72.619,14.343,39.451-55.555,45.293-4.6-1.264,1.664c-.589.775-58.975,77.634-68.061,90.527C883.415,372.311,876.866,373.552,868.214,373.552Z" transform="translate(371 -80.303)"/>
    <path id="Path_125" data-name="Path 125" class="cls-3" d="M852.446,521.665l-1.081-.516c-.23-.11-23.185-11.276-35.075-33.073-11.833-21.694,43.56-113.722,47.436-120.107l.056-29.226,19.927-53.8,25.413-14.364L887.3,321.489Z" transform="translate(394.01 -86.221)"/>
    <path id="Path_126" data-name="Path 126" class="cls-2" d="M646.377,431.558l-24.288,0-11.554-93.681,35.846,0Z" transform="translate(574.621 318)"/>
    <path id="Path_127" data-name="Path 127" class="cls-1" d="M862.161,589.132l-78.314,0v-.991a30.483,30.483,0,0,1,30.48-30.482h0l47.832,0Z" transform="translate(365.032 183.97)"/>
    <path id="Path_128" data-name="Path 128" class="cls-2" d="M794.05,418.334,770.969,425.9,730.818,340.47l34.066-11.16Z" transform="translate(687.829 309.939)"/>
    <path id="Path_129" data-name="Path 129" class="cls-1" d="M999.172,575.811,924.75,600.195l-.308-.941A30.484,30.484,0,0,1,943.917,560.8h0L989.373,545.9Z" transform="translate(495.924 172.907)"/>
    <path id="Path_130" data-name="Path 130" class="cls-1" d="M1064.234,753.5,995,637.913,936.548,514.419l-52.6,109.087L863.057,764.791l-73.275,1.018.289-1.146L902.2,319.109l87.821,13.12-4,57.969,2.381,3.386c19.839,28.183,40.351,57.321,28.586,88.732l33.351,99.029,73.825,164.894Z" transform="translate(370.619 -40.545)"/>
    <path id="Path_131" data-name="Path 131" class="cls-4" d="M860.324,469.794c-12.726,0-27.244-14.53-19.712-39.338l-.488-.353,18.091-79.931c-15.788-22.579,5.028-41.214,6.978-42.879l9.936-17.885,43.841-27.8,22.182,184.306-.328.314C924.8,461.554,871,469.794,860.324,469.794Z" transform="translate(416.511 -94.667)"/>
    <path id="Path_132" data-name="Path 132" class="cls-3" d="M916.071,515.679a21.581,21.581,0,0,1-5.179-.548c-1.7-.428-4.465-2.6-8.73-16.487-16.957-55.211-36.978-221.333-22.433-237.59l.333-.372,23.882,3.98c1.985-1.465,12.4-8.737,22.016-7.473a14.589,14.589,0,0,1,9.983,5.9l.165.216,7.608,108.24L971.59,498.924l-.668.3C969.3,499.965,934.5,515.679,916.071,515.679Z" transform="translate(450.55 -98.962)"/>
    <path id="Path_133" data-name="Path 133" class="cls-2" d="M897.16,403.07a18.577,18.577,0,0,0,17.55-22.437l34.961-24.079-9.451-24.816-48.894,34.7a18.677,18.677,0,0,0,5.835,36.633Z" transform="translate(453.4 -28.659)"/>
    <path id="Path_134" data-name="Path 134" class="cls-3" d="M923.95,444.053l-31.141-22.837,43.774-59.691-33.592-59.28,15.029-42.976.971,1.851c.452.862,45.313,86.323,53.139,100.018,8.142,14.246-45.353,79.482-47.634,82.251Z" transform="translate(467.585 -96.865)"/>
    <path id="Path_135" data-name="Path 135" class="cls-5" d="M1060.095,606.561l-572.206,19.4a53.433,53.433,0,0,1-55.149-51.533L423.315,296.4a53.432,53.432,0,0,1,51.532-55.149l572.206-19.4a53.432,53.432,0,0,1,55.149,51.533l9.424,278.021A53.432,53.432,0,0,1,1060.095,606.561Z" transform="translate(25.681 -132.104)"/>
    <path id="Path_136" data-name="Path 136" class="cls-6" d="M1106.1,391.614l.05,1.471a50.97,50.97,0,0,1-49.223,52.66L481.864,465.237A50.967,50.967,0,0,1,429.2,416.03l-.05-1.471Z" transform="translate(31.205 27.695)"/>
    <path id="Path_137" data-name="Path 137" class="cls-4" d="M529.121,301.149c-41.21,11.673-79.6-19.035-87.119-48.475l2.876-.615C479.642,243.129,519.591,266.843,529.121,301.149Z" transform="translate(43.295 -105.433)"/>
    <path id="Path_138" data-name="Path 138" class="cls-3" d="M713.757,433.88c-9.284.315-16.76-2.2-22.224-7.463-12.349-11.9-12.406-35.656-12.451-54.741-.014-5.552-.026-10.8-.341-15.179l0-.066a32.567,32.567,0,0,1,31.274-33.485l76.966-2.608c9.272-.314,16.741,2.193,22.2,7.453,12.348,11.895,12.413,35.64,12.466,54.72.015,5.564.029,10.82.349,15.21A32.588,32.588,0,0,1,790.7,431.272ZM681.969,356.3c.321,4.488.334,9.774.347,15.37.044,18.474.1,41.466,11.462,52.42,4.877,4.7,11.377,6.847,19.869,6.559l76.943-2.608a29.332,29.332,0,0,0,28.171-30.153c-.324-4.436-.338-9.746-.354-15.369-.051-18.469-.114-41.455-11.475-52.4-4.873-4.694-11.366-6.837-19.847-6.549l-76.963,2.608A29.325,29.325,0,0,0,681.969,356.3Z" transform="translate(266.092 -39.415)"/>
    <path id="Path_139" data-name="Path 139" class="cls-3" d="M513.714,305.736a72.165,72.165,0,0,1-38.483-9.869c-17.064-9.818-30.246-26.022-34.4-42.285l-.417-1.63,4.489-.961c35.284-9.051,76.35,14.87,86.172,50.217l.431,1.55-1.548.439a67.9,67.9,0,0,1-16.242,2.54ZM444.41,254.4c4.388,14.9,16.673,29.59,32.434,38.659a67.423,67.423,0,0,0,50.655,7.447c-10.138-32.9-48.666-54.918-81.823-46.378Z" transform="translate(41.8 -106.468)"/>
    <path id="Path_140" data-name="Path 140" class="cls-3" d="M472.611,404.337a26.845,26.845,0,0,1-24.664-12.545,33.579,33.579,0,0,1-1.126-32.906,26.94,26.94,0,0,1,24.332-14.217l102.55-3.476a26.988,26.988,0,0,1,25.212,12.555,33.579,33.579,0,0,1,1.112,32.9c-4.829,8.944-13.471,13.926-24.327,14.189l-102.553,3.476Zm-1.852-56.422a23.775,23.775,0,0,0-21.09,12.506,30.25,30.25,0,0,0,1.014,29.645,23.8,23.8,0,0,0,22.332,11.017l102.6-3.478a23.835,23.835,0,0,0,21.566-12.492,30.248,30.248,0,0,0-1-29.642,23.9,23.9,0,0,0-22.343-11.047L471.228,347.9c-.157,0-.314.007-.47.012Z" transform="translate(44.286 -19.857)"/>
    <path id="Path_141" data-name="Path 141" class="cls-4" d="M728.79,348.849l-32.328,1.1a8.087,8.087,0,0,1-.548-16.164l32.328-1.1a8.087,8.087,0,1,1,.548,16.164Z" transform="translate(274.919 -27.772)"/>
    <path id="Path_142" data-name="Path 142" class="cls-4" d="M729.242,362.172l-32.328,1.1a8.087,8.087,0,0,1-.548-16.164l32.328-1.1a8.087,8.087,0,0,1,.548,16.164Z" transform="translate(275.344 -15.233)"/>
    <path id="Path_143" data-name="Path 143" class="cls-4" d="M729.693,375.5l-32.328,1.1a8.087,8.087,0,1,1-.548-16.164l32.328-1.1a8.087,8.087,0,1,1,.548,16.164Z" transform="translate(275.769 -2.694)"/>
    <path id="Path_144" data-name="Path 144" class="cls-4" d="M757.934,347.861l-32.328,1.1a8.087,8.087,0,1,1-.548-16.164h0l32.328-1.1a8.087,8.087,0,0,1,.548,16.164Z" transform="translate(302.348 -28.702)"/>
    <path id="Path_145" data-name="Path 145" class="cls-4" d="M758.386,361.184l-32.328,1.1a8.087,8.087,0,0,1-.548-16.164h0l32.328-1.1a8.087,8.087,0,0,1,.548,16.164h0Z" transform="translate(302.774 -16.163)"/>
    <path id="Path_146" data-name="Path 146" class="cls-4" d="M758.838,374.507l-32.328,1.1a8.087,8.087,0,0,1-.548-16.164l32.328-1.1a8.087,8.087,0,0,1,.548,16.164Z" transform="translate(303.199 -3.624)"/>
    <rect id="Rectangle_9" data-name="Rectangle 9" class="cls-3" width="677.341" height="3.235" transform="translate(452.994 224.755) rotate(-1.942)"/>
    <path id="Path_147" data-name="Path 147" class="cls-3" d="M1060.095,606.561l-572.206,19.4a53.433,53.433,0,0,1-55.149-51.533L423.315,296.4a53.432,53.432,0,0,1,51.532-55.149l572.206-19.4a53.432,53.432,0,0,1,55.149,51.533l9.424,278.021A53.432,53.432,0,0,1,1060.095,606.561ZM474.958,244.485a50.194,50.194,0,0,0-48.411,51.808l9.424,278.021a50.194,50.194,0,0,0,51.807,48.41l572.206-19.395a50.194,50.194,0,0,0,48.41-51.807L1098.97,273.5a50.194,50.194,0,0,0-51.807-48.41Z" transform="translate(25.681 -132.104)"/>
    <path id="Path_148" data-name="Path 148" class="cls-7" d="M365.551,410.943a19.474,19.474,0,0,0-23.775-18.066l-25.752-36.292-25.871,10.271L327.24,417.6a19.579,19.579,0,0,0,38.312-6.653Z" transform="translate(-99.622 -5.274)"/>
    <path id="Path_149" data-name="Path 149" class="cls-3" d="M340.92,491.336,263,390.247l29.2-91.761c2.14-23.07,16.576-29.512,17.19-29.775l.937-.4,25.407,67.753-18.654,49.745,45.787,77.007Z" transform="translate(-125.179 -88.357)"/>
    <path id="Path_150" data-name="Path 150" class="cls-7" d="M466.965,222.751a19.473,19.473,0,0,0-16.174,25.1L416.6,276.333l12.24,25,47.721-40.9a19.579,19.579,0,0,0-9.6-37.683Z" transform="translate(19.387 -131.395)"/>
    <path id="Path_151" data-name="Path 151" class="cls-3" d="M549.825,258.092l-94.761,85.5L361.32,321.582c-23.166-.349-30.705-14.244-31.015-14.836l-.473-.9,65.586-30.569,51.039,14.753,73.236-51.6Z" transform="translate(-62.276 -116.486)"/>
    <path id="Path_152" data-name="Path 152" class="cls-7" d="M166.608,433.7h25.46l12.111-98.206-37.577,0Z" transform="translate(156.802 315.759)"/>
    <path id="Path_153" data-name="Path 153" class="cls-1" d="M0,0H80.019V30.916H27.408A27.408,27.408,0,0,1,0,3.509V0Z" transform="translate(397.969 773.101) rotate(179.997)"/>
    <path id="Path_154" data-name="Path 154" class="cls-7" d="M114.186,433.7h25.46l12.111-98.206-37.577,0Z" transform="translate(107.464 315.759)"/>
    <path id="Path_155" data-name="Path 155" class="cls-1" d="M0,0H80.019V30.916H27.408A27.408,27.408,0,0,1,0,3.509V0Z" transform="translate(296.208 773.1) rotate(179.997)"/>
    <path id="Path_156" data-name="Path 156" class="cls-1" d="M109.518,201.425,111.6,346.8l2.075,191.06L159.36,533.7,182.2,269.958,211.278,533.7h47.169l4.75-265.823-16.615-58.15Z" transform="translate(103.076 189.577)"/>
    <path id="Path_157" data-name="Path 157" class="cls-3" d="M410.634,526.953c-49.712,0-95.471-22.5-96.089-22.8l-.513-.257L309.86,403.775c-1.21-3.538-25.031-73.348-29.065-95.537-4.088-22.481,55.155-42.21,62.349-44.518l1.633-18.085,66.388-7.154,8.414,23.14,23.817,8.931a11.781,11.781,0,0,1,7.3,13.84l-13.236,53.831,32.33,178.1-6.96.3A126.4,126.4,0,0,1,410.634,526.953Z" transform="translate(-108.618 -116.43)"/>
    <circle id="Ellipse_26" data-name="Ellipse 26" class="cls-7" cx="47.8" cy="47.8" r="47.8" transform="translate(224.155 15.001)"/>
    <path id="Path_158" data-name="Path 158" class="cls-1" d="M323.462,284.678c9.109,9.7,26.027,4.494,27.214-8.762a16.015,16.015,0,0,0-.02-3.093c-.613-5.872-4.005-11.2-3.193-17.4a9.127,9.127,0,0,1,1.67-4.272c7.259-9.721,24.3,4.348,31.15-4.452,4.2-5.4-.737-13.891,2.487-19.922,4.255-7.96,16.857-4.033,24.76-8.392,8.793-4.85,8.267-18.341,2.479-26.547-7.059-10.007-19.435-15.347-31.658-16.117s-24.36,2.534-35.771,6.981c-12.965,5.052-25.821,12.035-33.8,23.435-9.7,13.864-10.636,32.5-5.784,48.712C305.95,264.709,316.023,276.754,323.462,284.678Z" transform="translate(-90.225 -175.607)"/>
    <path id="Path_159" data-name="Path 159" class="cls-8" d="M1774.059,577.09H193.941a1.941,1.941,0,0,1,0-3.882H1774.059a1.941,1.941,0,0,1,0,3.882Z" transform="translate(-192 198.606)"/>
    <path id="Path_160" data-name="Path 160" class="cls-2" d="M453.928,580.223l22.933,0,10.909-88.456-33.846,0Z" transform="translate(427.223 462.839)"/>
    <path id="Path_161" data-name="Path 161" class="cls-1" d="M642.913,709.085l45.163,0h0a28.782,28.782,0,0,1,28.781,28.779v.937l-73.945,0Z" transform="translate(232.389 326.489)"/>
    <path id="Path_162" data-name="Path 162" class="cls-2" d="M344.075,580.223l22.933,0,10.909-88.456-33.846,0Z" transform="translate(323.832 462.839)"/>
    <path id="Path_163" data-name="Path 163" class="cls-1" d="M533.059,709.085l45.163,0h0a28.782,28.782,0,0,1,28.781,28.779v.937l-73.945,0Z" transform="translate(128.997 326.489)"/>
    <path id="Path_164" data-name="Path 164" class="cls-1" d="M766.631,487.136s19.249,52.248,16.5,74.247,19.249,175.993,16.5,189.742,2.75,82.5,0,93.5,7.718,24.138,2.218,35.137-13.218,33.61-13.218,33.61l-35.748-2.75-5.5-30.249s-16.5-2.75-13.749-19.249-13.75-126.495-13.75-126.495L673.135,580.632l-66,140.244s-2.75,99-11,110,8.25,41.248,0,52.248-16.5,30.249-16.5,30.249H538.389v-22s-24.749-13.749,0-55l16.723-247.714,16.5-112.745Z" transform="translate(123.661 107.035)"/>
    <circle id="Ellipse_27" data-name="Ellipse 27" class="cls-2" cx="51.361" cy="51.361" r="51.361" transform="translate(736.419 145.676)"/>
    <path id="Path_165" data-name="Path 165" class="cls-1" d="M670.054,308.3l-10.873,27.779c-4.455,11.383-9.558,23.562-20,29.915-12.895,7.844-30.114,4.019-42.588-4.478a66.5,66.5,0,0,1,29.934-121.043l.516,9.3,11.409-9.563a11.092,11.092,0,0,0,17.242,2.438c-3,6.212.462,13.789,5.457,18.548,6.137,5.846,23.689,12.872,22.96,23.323C683.623,291.492,672.882,301.073,670.054,308.3Z" transform="translate(161.433 -114.805)"/>
    <path id="Path_166" data-name="Path 166" class="cls-2" d="M526.779,564.321A21.748,21.748,0,0,1,536.1,532.3l-1.026-49.686,30.042-7.988.464,70.187a21.865,21.865,0,0,1-38.8,19.506Z" transform="translate(119.621 105.826)"/>
    <path id="Path_167" data-name="Path 167" class="cls-3" d="M611.4,325.35s39.8-19.9,77.39-6.633,57.49,28.745,57.49,28.745L721.963,475.709l33.167,172.47s-170.259-13.267-185.737,0S553.915,632.7,553.915,632.7l13.267-163.625L542.86,365.15Z" transform="translate(138.221 -45.207)"/>
    <path id="Path_168" data-name="Path 168" class="cls-2" d="M671.972,569.307a21.748,21.748,0,0,1-.045-33.347l-14.935-47.4,26.591-16.1,20.151,67.234a21.865,21.865,0,0,1-31.762,29.614Z" transform="translate(245.64 103.783)"/>
    <path id="Path_169" data-name="Path 169" class="cls-3" d="M649.331,331.314h15.478s24.323,15.478,24.323,37.59S724.51,649.72,724.51,649.72l-37.59,6.633L653.753,475.039,629.43,426.393Z" transform="translate(219.699 -29.058)"/>
    <path id="Path_170" data-name="Path 170" class="cls-3" d="M600.952,340.426H558.941s-13.267,13.267-19.9,44.223-13.267,152.57-13.267,152.57L530.2,647.777h33.167l4.422-143.725L589.9,411.183Z" transform="translate(122.14 -20.482)"/>
  </g>
</svg>
