<svg xmlns="http://www.w3.org/2000/svg" width="1584" height="1124.846" viewBox="0 0 1584 1124.846">
  <defs>
    <style>
      .cls-1 {
        fill: #f1f1f1;
      }

      .cls-2 {
        fill: #ffb7b7;
      }

      .cls-3 {
        fill: #cbcbcb;
      }

      .cls-4 {
        fill: #2f2e41;
      }

      .cls-5 {
        fill: #3f3d56;
      }

      .cls-6 {
        fill: #f70;
      }

      .cls-7 {
        fill: #fff;
      }

      .cls-8 {
        fill: #e5e5e5;
      }
    </style>
  </defs>
  <g id="svg" transform="translate(0 0)">
    <path id="Path_171" data-name="Path 171" class="cls-1" d="M939.3,898.233c-.307-.5-7.532-12.566-10.037-37.619-2.3-22.985-.82-61.728,19.272-115.771,38.065-102.381-8.772-184.987-9.251-185.811l2.311-1.34c.121.209,12.207,21.27,19.347,54.807a239.107,239.107,0,0,1-9.9,133.275c-38,102.206-9.749,150.59-9.459,151.067Z" transform="translate(538.319 225.974)"/>
    <circle id="Ellipse_28" data-name="Ellipse 28" class="cls-1" cx="17.359" cy="17.359" r="17.359" transform="translate(1445.376 744.277)"/>
    <circle id="Ellipse_29" data-name="Ellipse 29" class="cls-1" cx="17.359" cy="17.359" r="17.359" transform="translate(1500.124 808.372)"/>
    <circle id="Ellipse_30" data-name="Ellipse 30" class="cls-1" cx="17.359" cy="17.359" r="17.359" transform="translate(1462.735 851.104)"/>
    <circle id="Ellipse_31" data-name="Ellipse 31" class="cls-1" cx="17.359" cy="17.359" r="17.359" transform="translate(1508.136 887.156)"/>
    <circle id="Ellipse_32" data-name="Ellipse 32" class="cls-1" cx="17.359" cy="17.359" r="17.359" transform="translate(1449.382 943.241)"/>
    <path id="Path_172" data-name="Path 172" class="cls-1" d="M940.263,762.144s-17.359-42.73,34.719-74.778Z" transform="translate(547.844 362.701)"/>
    <path id="Path_173" data-name="Path 173" class="cls-1" d="M963.883,746.511s-7.9-45.44-69.048-45.051Z" transform="translate(502.874 377.56)"/>
    <path id="Path_174" data-name="Path 174" class="cls-2" d="M686.836,543.306a18.365,18.365,0,0,0,21.98-17.6L847.578,395.1,816.356,370.19,689.54,506.733a18.465,18.465,0,0,0-2.7,36.572Z" transform="translate(267.804 28.271)"/>
    <path id="Path_175" data-name="Path 175" class="cls-3" d="M762.706,429.232l-27-31.638a8.235,8.235,0,0,1,1.894-12.325l35.145-22a22.869,22.869,0,1,1,29.587,34.88L775.174,429.3a8.235,8.235,0,0,1-12.469-.068Z" transform="translate(333.014 15.248)"/>
    <path id="Path_176" data-name="Path 176" class="cls-2" d="M523.712,597.221l-33.926,0L473.646,466.358l50.072,0Z" transform="translate(499.413 491.728)"/>
    <path id="Path_177" data-name="Path 177" class="cls-4" d="M772.86,744.865l-109.395,0v-1.384A42.581,42.581,0,0,1,706.042,700.9h.006l66.815,0Z" transform="translate(258.917 376.97)"/>
    <path id="Path_178" data-name="Path 178" class="cls-2" d="M655.722,597.221l-33.926,0L605.654,466.358l50.074,0Z" transform="translate(638.602 491.728)"/>
    <path id="Path_179" data-name="Path 179" class="cls-4" d="M904.869,744.865l-109.395,0v-1.384A42.581,42.581,0,0,1,838.051,700.9h.006l66.815,0Z" transform="translate(398.108 376.97)"/>
    <path id="Path_180" data-name="Path 180" class="cls-4" d="M946.23,504l34.2-126.35-44.365-24.938H874.137l-24.086,25.768s-40.241,28-30.5,59.019l15.713,70.656-24.032,112.22L690.151,788.29,661.49,953.225,774.316,982.8l122-240.231,59.154,266,110.047-5.535L1027.6,680.512s-10.81-98.253-67.472-159.6Z" transform="translate(256.835 9.845)"/>
    <path id="Path_181" data-name="Path 181" class="cls-2" d="M868.841,587.05a18.365,18.365,0,0,0-2.353-28.062L839.954,379.977,801.868,392l38.125,172.406a18.465,18.465,0,0,0,28.848,22.641Z" transform="translate(404.85 38.59)"/>
    <path id="Path_182" data-name="Path 182" class="cls-3" d="M849.514,429.86,808.2,434.624a8.235,8.235,0,0,1-9.173-8.446l1.338-41.442a22.869,22.869,0,1,1,45.452-5.106l10.709,39.918a8.235,8.235,0,0,1-7.011,10.312Z" transform="translate(401.847 16.801)"/>
    <path id="Path_183" data-name="Path 183" class="cls-4" d="M746.36,399.16V345.924a71.337,71.337,0,1,1,142.674,0V399.16a9.593,9.593,0,0,1-9.583,9.583H755.944a9.593,9.593,0,0,1-9.584-9.583Z" transform="translate(346.322 -72.533)"/>
    <circle id="Ellipse_33" data-name="Ellipse 33" class="cls-2" cx="52.302" cy="52.302" r="52.302" transform="translate(1097.059 230.367)"/>
    <path id="Path_184" data-name="Path 184" class="cls-4" d="M738.145,340.347a56.5,56.5,0,0,1,56.431-56.431h10.648a56.494,56.494,0,0,1,56.43,56.431v1.065h-22.5l-7.674-21.49-1.535,21.49H818.316l-3.872-10.843-.775,10.843H738.146Z" transform="translate(337.66 -62.697)"/>
    <path id="Path_185" data-name="Path 185" class="cls-4" d="M772.391,392.768a9.44,9.44,0,0,1-.75-10.023c11.283-21.461,27.081-61.116,6.112-85.572l-1.507-1.757h60.876v91.4l-55.3,9.757a9.8,9.8,0,0,1-1.7.15,9.544,9.544,0,0,1-7.733-3.951Z" transform="translate(371.822 -50.571)"/>
    <path id="Path_186" data-name="Path 186" class="cls-3" d="M1387.295,725.7H604.568a2.054,2.054,0,0,1,0-4.109h782.726a2.054,2.054,0,0,1,0,4.109Z" transform="translate(194.651 398.784)"/>
    <path id="Path_187" data-name="Path 187" class="cls-5" d="M647.993,424.671h0l43.592-10.1A9.512,9.512,0,0,1,702.3,419.71l44.653,92.6a7.708,7.708,0,0,1-4.824,10.735l-44.3,12.586a10.156,10.156,0,0,1-12.1-5.754L657.23,463.695l-.868.481-5.423-12.539.9-.461C650.9,445.6,636.69,427.29,647.993,424.671Z" transform="translate(238.022 74.811)"/>
    <path id="Path_188" data-name="Path 188" class="cls-6" d="M684.123,416.73c4.174-1.168,10.327-2.772,12.512,2.412l43.585,92a4.083,4.083,0,0,1-2.5,5.643l-43.99,13.273c-7.366,8.4-44.685-97.84-47.611-98.946a4.637,4.637,0,0,1,3.206-6.327c1.826.006,6.12-2.523,7.243-.021h0c-.032,3,23.846-4.662,25.049-4.338a3.292,3.292,0,0,0,2.511-3.7Z" transform="translate(240.234 76.092)"/>
    <path id="Path_189" data-name="Path 189" class="cls-7" d="M2,2H903.826V298.053H869.666v77.43l-77.428-77.43H2Z" transform="translate(2.109 2.109)"/>
    <path id="Path_190" data-name="Path 190" class="cls-8" d="M1090.369,563.748l-83.24-83.242H214.486V176.235H1124.53V480.506h-34.161ZM222.7,472.288h787.832l71.618,71.62v-71.62h34.16V184.453H222.7Z" transform="translate(-214.486 -176.235)"/>
    <rect id="Rectangle_10" data-name="Rectangle 10" class="cls-6" width="410.085" height="12.445" transform="translate(91.426 104.364)"/>
    <rect id="Rectangle_11" data-name="Rectangle 11" class="cls-6" width="714.742" height="12.445" transform="translate(90.819 147.416)"/>
    <rect id="Rectangle_12" data-name="Rectangle 12" class="cls-6" width="714.042" height="12.445" transform="translate(91.519 190.467)"/>
  </g>
</svg>
