<svg xmlns="http://www.w3.org/2000/svg" width="41.519" height="42.598" viewBox="0 0 41.519 42.598">
  <path id="Icon_awesome-arrow-down" data-name="Icon awesome-arrow-down" d="M39.135,20.362l2.111,2.111a2.272,2.272,0,0,1,0,3.223L22.773,44.178a2.272,2.272,0,0,1-3.223,0L1.068,25.7a2.272,2.272,0,0,1,0-3.223l2.111-2.111a2.284,2.284,0,0,1,3.261.038L17.354,31.856V4.532A2.276,2.276,0,0,1,19.636,2.25h3.042A2.276,2.276,0,0,1,24.96,4.532V31.856L35.874,20.4a2.268,2.268,0,0,1,3.261-.038Z" transform="translate(-0.397 -2.25)" fill="#fff"/>
</svg>
