<svg xmlns="http://www.w3.org/2000/svg" width="54.075" height="52.706" viewBox="0 0 54.075 52.706">
  <path id="Icon_awesome-arrow-right" data-name="Icon awesome-arrow-right" d="M22.992,6.177,25.671,3.5a2.885,2.885,0,0,1,4.091,0l23.462,23.45a2.885,2.885,0,0,1,0,4.091L29.762,54.5a2.885,2.885,0,0,1-4.091,0l-2.679-2.679a2.9,2.9,0,0,1,.048-4.14L37.583,33.828H2.9a2.89,2.89,0,0,1-2.9-2.9V27.069a2.89,2.89,0,0,1,2.9-2.9H37.583L23.04,10.317A2.879,2.879,0,0,1,22.992,6.177Z" transform="translate(0 -2.647)" fill="#f70"/>
</svg>
